<?xml version="1.0" encoding="UTF-8"?>
<svg version="1.1" xmlns="http://www.w3.org/2000/svg" width="512" height="512">
<path d="M0 0 C1.15338867 -0.01455482 1.15338867 -0.01455482 2.33007812 -0.02940369 C4.83599113 -0.05439567 7.34163073 -0.06696017 9.84765625 -0.07421875 C10.70996857 -0.07683716 11.57228088 -0.07945557 12.46072388 -0.08215332 C29.56042676 -0.08767756 46.02904217 1.53337024 62.91015625 4.23828125 C64.07788574 4.42503418 65.24561523 4.61178711 66.44873047 4.80419922 C70.67963955 5.48975482 74.9085274 6.18135191 79.12866211 6.93066406 C88.47560762 8.58939139 97.60480291 9.40588194 107.09765625 9.36328125 C107.90912109 9.36714844 108.72058594 9.37101562 109.55664062 9.375 C115.26235017 9.36657829 120.94792645 9.15494189 126.64596558 8.88394165 C139.17541276 8.28935728 151.68292684 8.02073103 164.22631836 7.99804688 C167.47470092 7.9882751 170.72246555 7.95704954 173.97070312 7.92578125 C200.42743171 7.7932155 231.3809425 9.86289064 252.1953125 28.2578125 C258.00255837 33.34741497 262.86083811 35.33637498 270.3203125 37.19921875 C280.98622397 40.28641402 289.12074739 46.5595567 296.91015625 54.23828125 C297.82861328 55.04845703 297.82861328 55.04845703 298.765625 55.875 C318.45309558 73.76041377 326.95503045 104.68553826 331.48535156 129.88232422 C332.00180455 132.74656061 332.55010667 135.60411652 333.09960938 138.4621582 C333.47192559 140.42193526 333.82778007 142.38481593 334.18359375 144.34765625 C334.66943107 146.94923673 335.19584834 149.54355336 335.76171875 152.12890625 C341.24046286 177.90605135 338.83436217 205.06050352 324.80859375 227.73828125 C300.36430126 264.36153219 257.15836384 279.26515972 215.84375 287.89453125 C201.87432893 290.67858477 187.76928283 292.60483379 173.61645508 294.17333984 C172.21496216 294.32923584 172.21496216 294.32923584 170.78515625 294.48828125 C169.82697998 294.59479004 168.86880371 294.70129883 167.8815918 294.81103516 C153.78943926 296.48014179 139.80683067 298.98506933 125.82177734 301.37011719 C109.09912016 304.19713479 92.34842562 306.65020938 75.34765625 306.55078125 C74.30174316 306.5458667 73.25583008 306.54095215 72.17822266 306.53588867 C47.64840392 306.17113996 24.59463441 299.83935742 5.91015625 283.23828125 C5.27464844 282.67367188 4.63914062 282.1090625 3.984375 281.52734375 C-0.83137264 276.97854443 -4.50022573 271.78295908 -8.08984375 266.23828125 C-8.95609375 264.93117188 -8.95609375 264.93117188 -9.83984375 263.59765625 C-24.26050222 240.55035388 -29.28854645 211.72942146 -29.40234375 184.92578125 C-29.40782227 184.00216797 -29.41330078 183.07855469 -29.41894531 182.12695312 C-29.35410402 175.96926621 -28.50005494 170.22865174 -27.08984375 164.23828125 C-27.97285156 163.76519531 -28.85585937 163.29210937 -29.765625 162.8046875 C-49.81017844 151.85062812 -64.88430943 136.82792826 -72.125 114.69140625 C-78.21749249 92.88669627 -75.08710618 70.50781119 -68.71484375 49.17578125 C-68.43503662 48.23645752 -68.15522949 47.29713379 -67.86694336 46.3293457 C-62.57988891 29.47508358 -53.92881119 17.56152393 -38.3984375 8.703125 C-26.50478584 2.90696391 -13.17118651 0.13934771 0 0 Z " fill="#FDD2C1" transform="translate(126.08984375,115.76171875)"/>
<path d="M0 0 C1.15338867 -0.01455482 1.15338867 -0.01455482 2.33007812 -0.02940369 C4.83599113 -0.05439567 7.34163073 -0.06696017 9.84765625 -0.07421875 C10.70996857 -0.07683716 11.57228088 -0.07945557 12.46072388 -0.08215332 C29.56042676 -0.08767756 46.02904217 1.53337024 62.91015625 4.23828125 C64.07788574 4.42503418 65.24561523 4.61178711 66.44873047 4.80419922 C70.67963955 5.48975482 74.9085274 6.18135191 79.12866211 6.93066406 C88.47560762 8.58939139 97.60480291 9.40588194 107.09765625 9.36328125 C107.90912109 9.36714844 108.72058594 9.37101562 109.55664062 9.375 C115.26235017 9.36657829 120.94792645 9.15494189 126.64596558 8.88394165 C139.17541276 8.28935728 151.68292684 8.02073103 164.22631836 7.99804688 C167.47470092 7.9882751 170.72246555 7.95704954 173.97070312 7.92578125 C200.42743171 7.7932155 231.3809425 9.86289064 252.1953125 28.2578125 C258.00255837 33.34741497 262.86083811 35.33637498 270.3203125 37.19921875 C280.98622397 40.28641402 289.12074739 46.5595567 296.91015625 54.23828125 C297.82861328 55.04845703 297.82861328 55.04845703 298.765625 55.875 C318.45309558 73.76041377 326.95503045 104.68553826 331.48535156 129.88232422 C332.00180455 132.74656061 332.55010667 135.60411652 333.09960938 138.4621582 C333.47192559 140.42193526 333.82778007 142.38481593 334.18359375 144.34765625 C334.66943107 146.94923673 335.19584834 149.54355336 335.76171875 152.12890625 C341.24046286 177.90605135 338.83436217 205.06050352 324.80859375 227.73828125 C300.36430126 264.36153219 257.15836384 279.26515972 215.84375 287.89453125 C201.87432893 290.67858477 187.76928283 292.60483379 173.61645508 294.17333984 C172.21496216 294.32923584 172.21496216 294.32923584 170.78515625 294.48828125 C169.82697998 294.59479004 168.86880371 294.70129883 167.8815918 294.81103516 C153.78943926 296.48014179 139.80683067 298.98506933 125.82177734 301.37011719 C109.09912016 304.19713479 92.34842562 306.65020938 75.34765625 306.55078125 C74.30174316 306.5458667 73.25583008 306.54095215 72.17822266 306.53588867 C47.64840392 306.17113996 24.59463441 299.83935742 5.91015625 283.23828125 C5.27464844 282.67367188 4.63914062 282.1090625 3.984375 281.52734375 C-0.83137264 276.97854443 -4.50022573 271.78295908 -8.08984375 266.23828125 C-8.95609375 264.93117188 -8.95609375 264.93117188 -9.83984375 263.59765625 C-24.26050222 240.55035388 -29.28854645 211.72942146 -29.40234375 184.92578125 C-29.40782227 184.00216797 -29.41330078 183.07855469 -29.41894531 182.12695312 C-29.35410402 175.96926621 -28.50005494 170.22865174 -27.08984375 164.23828125 C-27.97285156 163.76519531 -28.85585937 163.29210937 -29.765625 162.8046875 C-49.81017844 151.85062812 -64.88430943 136.82792826 -72.125 114.69140625 C-78.21749249 92.88669627 -75.08710618 70.50781119 -68.71484375 49.17578125 C-68.43503662 48.23645752 -68.15522949 47.29713379 -67.86694336 46.3293457 C-62.57988891 29.47508358 -53.92881119 17.56152393 -38.3984375 8.703125 C-26.50478584 2.90696391 -13.17118651 0.13934771 0 0 Z M147.06787109 79.82324219 C127.98529121 90.44599758 109.89721957 98.17085508 88.91015625 104.23828125 C40.79686589 117.79212327 40.79686589 117.79212327 -1.08984375 144.23828125 C-1.71375 144.76679688 -2.33765625 145.2953125 -2.98046875 145.83984375 C-12.86554106 154.87889635 -19.46483162 167.96468187 -20.46484375 181.30859375 C-21.39767511 202.59565918 -12.36013926 225.43529312 1.59375 241.359375 C16.73151718 257.83726551 37.37291217 264.86624747 59.34765625 266.05078125 C82.66529388 266.97142453 105.72197241 262.82126625 128.52368164 258.33642578 C138.4934623 256.38080811 148.47270592 254.63045592 158.515625 253.08984375 C160.29501465 252.81637619 160.29501465 252.81637619 162.11035156 252.53738403 C166.98901523 251.79048191 171.86819415 251.04740876 176.74926758 250.31640625 C221.72545405 243.55806066 276.53574889 233.63316054 306.8046875 195.875 C320.11028227 177.69938361 325.37353742 156.0688712 322.09765625 133.73828125 C321.71652745 131.56897968 321.32060452 129.40222688 320.91015625 127.23828125 C320.72710937 126.17480469 320.5440625 125.11132812 320.35546875 124.015625 C315.87724064 100.38053219 305.83757737 75.78666997 287.91015625 59.23828125 C287.40097656 58.75875 286.89179688 58.27921875 286.3671875 57.78515625 C272.47613776 45.19738578 255.55317041 42.37273402 237.41796875 43.06787109 C205.31235283 45.24950271 174.44217898 64.55833866 147.06787109 79.82324219 Z " fill="#353433" transform="translate(126.08984375,115.76171875)"/>
<path d="M0 0 C1.46757687 0.51609787 2.92772654 1.05444027 4.375 1.625 C5.40625 2.016875 6.4375 2.40875 7.5 2.8125 C8.11875 3.080625 8.7375 3.34875 9.375 3.625 C10.48349861 21.73047725 3.67559867 37.71689045 -7.83984375 51.22265625 C-33.11510659 78.432465 -78.14487766 89.30478557 -113.27972412 94.68896484 C-116.20195031 95.13679254 -119.1227988 95.59284563 -122.04345703 96.05078125 C-128.85262904 97.11676668 -135.6639847 98.1684194 -142.47558594 99.21875 C-145.484332 99.68372977 -148.49247038 100.15222001 -151.5 100.625 C-152.42288818 100.76993896 -153.34577637 100.91487793 -154.29663086 101.06420898 C-162.1114067 102.32127926 -169.88448192 103.78082532 -177.66259766 105.24389648 C-254.88754959 119.76501222 -254.88754959 119.76501222 -281.17578125 101.890625 C-283.38821369 100.19599589 -285.51035603 98.43929146 -287.625 96.625 C-288.86443359 95.68720703 -288.86443359 95.68720703 -290.12890625 94.73046875 C-300.67134196 85.83786649 -307.53600011 71.09514356 -308.94921875 57.5078125 C-308.625 54.625 -308.625 54.625 -307 52.7890625 C-304.23953261 51.00020699 -301.47207007 49.27421742 -298.625 47.625 C-297.48546875 46.96113281 -296.3459375 46.29726563 -295.171875 45.61328125 C-275.33983461 34.64247639 -252.55474777 29.91042681 -230.32421875 35.5390625 C-229.10347656 35.89742188 -227.88273437 36.25578125 -226.625 36.625 C-225.543396 36.93969238 -225.543396 36.93969238 -224.43994141 37.26074219 C-205.88851573 42.76969734 -188.25525051 50.7639102 -170.6796875 58.78515625 C-159.82092608 63.72800552 -149.00367042 68.44232415 -137.6875 72.25 C-136.74745117 72.5687207 -135.80740234 72.88744141 -134.83886719 73.21582031 C-118.99854562 78.33415721 -97.87852981 81.44957841 -82.05859375 74.8828125 C-64.88666493 66.00743356 -57.47797421 50.36304752 -50 33.3125 C-43.82916971 19.25170872 -36.95068002 6.42313329 -22.625 -0.375 C-16.6447414 -3.3651293 -6.19633859 -1.85328556 0 0 Z " fill="#FE8E89" transform="translate(428.625,259.375)"/>
<path d="M0 0 C1.00619385 0.00273422 1.00619385 0.00273422 2.03271484 0.00552368 C25.34789356 0.11090884 48.1905598 3.87628788 71.11206055 7.78759766 C77.5147818 8.79823202 83.61419462 9.4396154 90.1015625 9.4453125 C90.80677032 9.44663177 91.51197815 9.44795105 92.23855591 9.4493103 C94.51324993 9.45121319 96.78781859 9.444902 99.0625 9.4375 C99.84870728 9.43661377 100.63491455 9.43572754 101.44494629 9.43481445 C110.37290331 9.42302598 119.27210482 9.3265554 128.1875 8.8125 C137.63723531 8.28339001 147.08037964 8.16883539 156.54284668 8.13525391 C158.22767905 8.12856332 159.91250235 8.11846761 161.59729004 8.10449219 C176.76220523 7.98837375 192.4222067 8.33991502 207.125 12.4375 C207.89118652 12.64415283 208.65737305 12.85080566 209.44677734 13.0637207 C217.57358136 15.40396563 225.20432327 18.94366125 232.4375 23.3125 C232.7675 23.9725 233.0975 24.6325 233.4375 25.3125 C229.54872133 26.22665319 225.92840618 26.44682455 221.9375 26.4375 C220.8340625 26.44007813 219.730625 26.44265625 218.59375 26.4453125 C215.4375 26.3125 215.4375 26.3125 212.734375 25.6796875 C209.38935913 25.14494006 207.79386376 26.90217866 205.109375 28.71875 C185.64961397 40.32632676 158.3094145 48.07873968 135.81640625 43.58984375 C132.60091087 42.65435805 129.53900105 41.5730031 126.4375 40.3125 C125.55578125 39.961875 124.6740625 39.61125 123.765625 39.25 C116.89645931 36.17807497 111.77188178 31.54393757 106.4375 26.3125 C105.68210938 25.60222656 104.92671875 24.89195312 104.1484375 24.16015625 C102.4375 22.3125 102.4375 22.3125 102.4375 20.3125 C100.59091797 20.41691406 100.59091797 20.41691406 98.70703125 20.5234375 C84.21705603 21.05708999 70.62107319 19.14022422 56.41064453 16.67089844 C54.827209 16.39613511 53.24371314 16.12171928 51.66015625 15.84765625 C50.88309326 15.71306 50.10603027 15.57846375 49.30541992 15.43978882 C38.08296026 13.5295172 26.76668435 12.39174849 15.4375 11.3125 C13.16175679 20.64575637 12.09920005 29.64542025 12 39.25 C11.96712891 40.68678101 11.96712891 40.68678101 11.93359375 42.15258789 C11.95466609 49.7379708 13.32961843 56.047326 18.67578125 61.6640625 C22.21063783 63.7739769 25.75974322 65.28706236 29.625 66.6875 C30.44814697 66.98640137 31.27129395 67.28530273 32.11938477 67.59326172 C52.19038679 74.58913271 73.54188692 77.78970486 94.4375 81.3125 C93.4375 83.3125 93.4375 83.3125 90.6640625 84.3828125 C89.47554687 84.73085937 88.28703125 85.07890625 87.0625 85.4375 C85.89976562 85.79070312 84.73703125 86.14390625 83.5390625 86.5078125 C74.53657701 88.60854328 65.68883738 87.09792253 56.8125 85.125 C55.772146 84.90013916 54.73179199 84.67527832 53.65991211 84.44360352 C42.19831645 81.90883604 30.89686617 79.14303386 20.2890625 74.0234375 C17.34232681 72.89199046 14.54664415 73.1331263 11.4375 73.3125 C10.73625 73.15523438 10.035 72.99796875 9.3125 72.8359375 C5.264119 72.09886813 1.29405621 72.12821327 -2.8125 72.125 C-3.62074219 72.11275391 -4.42898437 72.10050781 -5.26171875 72.08789062 C-16.798135 72.06020323 -25.96637434 74.95968415 -34.4375 83.0625 C-38.156095 88.74976294 -41.74963313 95.36188086 -40.5625 102.3125 C-38.38169845 104.33976811 -36.5616886 105.722101 -34.0625 107.25 C-33.39702148 107.67603516 -32.73154297 108.10207031 -32.04589844 108.54101562 C-25.92522311 112.33966153 -19.49177212 115.23608987 -12.828125 117.9375 C-9.5625 119.3125 -9.5625 119.3125 -6.5625 121.3125 C-7.55881921 122.35727242 -8.58606309 123.37259714 -9.625 124.375 C-10.19347656 124.94347656 -10.76195312 125.51195312 -11.34765625 126.09765625 C-14.7504957 127.96411669 -16.84433351 127.23626807 -20.5625 126.3125 C-23.44252458 125.14477005 -26.14971795 123.73990714 -28.875 122.25 C-29.99213379 121.64925659 -29.99213379 121.64925659 -31.13183594 121.03637695 C-37.14662928 117.71856885 -42.40073835 113.84359529 -47.5625 109.3125 C-48.38234375 108.69117188 -49.2021875 108.06984375 -50.046875 107.4296875 C-57.78114235 100.9204128 -63.13931238 91.7229099 -66.5625 82.3125 C-66.88089844 81.46042969 -67.19929688 80.60835938 -67.52734375 79.73046875 C-72.39735788 64.04318821 -71.11087651 44.27268914 -64.20703125 29.390625 C-62.79427893 26.89084878 -61.27846765 24.61289142 -59.5625 22.3125 C-58.79292969 21.25482422 -58.79292969 21.25482422 -58.0078125 20.17578125 C-44.27767278 2.93098854 -20.59889077 -0.08991166 0 0 Z " fill="#EAB8A3" transform="translate(135.5625,124.6875)"/>
<path d="M0 0 C25.97839981 -1.2462985 25.97839981 -1.2462985 34.875 6.66796875 C35.24625 7.10753906 35.6175 7.54710937 36 8 C35.030625 8.52207031 34.06125 9.04414063 33.0625 9.58203125 C18.74326104 17.40072161 5.31893711 26.2631486 -7 37 C-7.51127441 37.43892578 -8.02254883 37.87785156 -8.54931641 38.33007812 C-17.15688135 45.76188743 -24.39289748 53.74646286 -31 63 C-31.39670898 63.55381348 -31.79341797 64.10762695 -32.20214844 64.67822266 C-42.96369621 79.95456897 -50.17129994 97.00880284 -55 115 C-55.31710937 116.18078125 -55.63421875 117.3615625 -55.9609375 118.578125 C-58.85906528 131.14624347 -59.22092808 144.16419564 -60 157 C-67.59942747 155.2634073 -74.75944855 153.16064563 -81.9375 150.125 C-82.86224121 149.74134277 -83.78698242 149.35768555 -84.73974609 148.96240234 C-93.21765301 145.40913117 -101.5822976 141.60503236 -109.94711304 137.79507446 C-120.62708516 132.93771989 -131.45132016 128.56173074 -142.43017578 124.42626953 C-143.54118652 124.0032959 -144.65219727 123.58032227 -145.796875 123.14453125 C-146.78010742 122.77690674 -147.76333984 122.40928223 -148.77636719 122.03051758 C-151 121 -151 121 -152 119 C-151.40431272 117.74576396 -150.74617996 116.52102518 -150.0625 115.3125 C-146.62678499 107.81420268 -146.57528423 99.46133625 -149.0703125 91.6484375 C-153.88991125 81.24547846 -161.38071963 74.87844912 -171 69 C-167.40531781 66.6035452 -163.71195092 65.50853708 -159.625 64.25 C-158.37154785 63.85748047 -158.37154785 63.85748047 -157.09277344 63.45703125 C-151.72520194 61.79198866 -146.33261156 60.241468 -140.91723633 58.74023438 C-130.59342642 55.87508182 -120.29084294 52.82324691 -110.7578125 47.82421875 C-107.8476822 46.45969099 -106.08994102 47.15728881 -103 48 C-100.25809637 49.18456864 -97.56355512 50.4369855 -94.87890625 51.74609375 C-88.56666978 54.49538535 -82.97501299 55.33410708 -76.1875 55.25 C-74.99229736 55.23876099 -74.99229736 55.23876099 -73.77294922 55.22729492 C-49.2405803 54.77947787 -32.75433654 40.64198127 -16.46484375 23.7890625 C-12.60030667 19.69816112 -8.88487163 15.5244374 -5.375 11.125 C-4.93196533 10.57295898 -4.48893066 10.02091797 -4.0324707 9.45214844 C-1.68050087 6.36737756 -0.41438381 3.8723453 0 0 Z " fill="#F65C56" transform="translate(364,169)"/>
<path d="M0 0 C0.33 0 0.66 0 1 0 C2.04249613 20.15492526 -3.46186568 39.11822058 -16.80859375 54.6328125 C-36.02113154 75.38646294 -60.02679656 87.98789602 -87 96 C-87.68304199 96.20334961 -88.36608398 96.40669922 -89.06982422 96.61621094 C-109.32330025 102.52674048 -130.86783895 106.96971275 -151.96899414 108.16870117 C-160.65238573 108.6811616 -169.04360273 109.87140057 -177.58868408 111.41177368 C-180.64178458 111.9619351 -183.69763298 112.4960367 -186.75341797 113.03105164 C-188.29521492 113.30107087 -189.83688287 113.57182783 -191.37841797 113.84333801 C-198.28462246 115.05808607 -205.20088637 116.20428177 -212.125 117.3125 C-213.10573486 117.47145752 -214.08646973 117.63041504 -215.09692383 117.79418945 C-216.01626709 117.94073975 -216.93561035 118.08729004 -217.8828125 118.23828125 C-218.66027832 118.36243408 -219.43774414 118.48658691 -220.23876953 118.61450195 C-227.06451759 119.56745122 -233.76231332 120.15752597 -240.65625 120.16796875 C-241.83701111 120.17296135 -241.83701111 120.17296135 -243.04162598 120.17805481 C-244.69197004 120.18307637 -246.34232409 120.18546463 -247.99267578 120.18530273 C-250.49398691 120.18749473 -252.99485998 120.2057164 -255.49609375 120.22460938 C-257.11197768 120.22754338 -258.72786368 120.22952813 -260.34375 120.23046875 C-261.07839478 120.23765427 -261.81303955 120.24483978 -262.56994629 120.25224304 C-267.93701325 120.22902001 -272.80488951 119.2958331 -278 118 C-278.99386719 117.80019531 -279.98773438 117.60039062 -281.01171875 117.39453125 C-293.65789124 114.64375796 -304.43543665 108.63563094 -314 100 C-314.63421875 99.43539062 -315.2684375 98.87078125 -315.921875 98.2890625 C-322.84718905 91.76210723 -327.70488106 83.91847633 -332 75.5 C-332.31517578 74.88825928 -332.63035156 74.27651855 -332.95507812 73.64624023 C-333.70302753 72.12840556 -334.35996588 70.56639929 -335 69 C-334.505 68.01 -334.505 68.01 -334 67 C-333.50113281 67.61746094 -333.00226563 68.23492187 -332.48828125 68.87109375 C-318.6793969 85.15913148 -298.77252353 94.71568592 -277.59423828 96.81469727 C-247.21292163 98.98479131 -217.96995427 93.68192036 -188.26977539 88.00292969 C-176.6301804 85.78879629 -164.98821658 83.85955344 -153.25 82.25 C-152.52807465 82.15067169 -151.80614929 82.05134338 -151.06234741 81.94900513 C-149.63975616 81.75336282 -148.21715404 81.55779946 -146.79454041 81.36231995 C-145.77089134 81.22164345 -145.77089134 81.22164345 -144.7265625 81.078125 C-144.05955826 80.98663681 -143.39255402 80.89514862 -142.70533752 80.80088806 C-99.79279535 74.87301638 -56.38052614 64.02885183 -23 35 C-22.04673828 34.17435547 -22.04673828 34.17435547 -21.07421875 33.33203125 C-11.18736172 24.12702643 -5.25394164 12.21414729 0 0 Z " fill="#DE6E4C" transform="translate(453,292)"/>
<path d="M0 0 C10.70836911 -0.55743302 20.91594465 1.15902112 31.4375 2.875 C33.15155688 3.14798965 34.86574924 3.42012999 36.58007812 3.69140625 C49.54801336 5.74995479 49.54801336 5.74995479 54.70019531 6.63720703 C62.79836352 7.99574165 70.64224259 8.27647456 78.84375 8.0390625 C85.90543072 8.11519922 85.90543072 8.11519922 89.13891602 10.72900391 C90.89752109 12.74630216 92.44185574 14.82672293 94 17 C103.35568496 26.68757276 116.84111753 31.96537454 130.16845703 32.30029297 C141.8723567 32.36504125 152.63021108 30.83264936 163.63671875 26.70703125 C166 26 166 26 168 27 C167.23042969 27.34289062 166.46085938 27.68578125 165.66796875 28.0390625 C148.97678023 35.64469947 132.65919719 44.17335175 116.6875 53.1875 C109.9823024 56.9665224 103.1839072 60.53221356 96.3125 64 C95.39106201 64.46946045 94.46962402 64.9389209 93.52026367 65.42260742 C92.64345947 65.86064697 91.76665527 66.29868652 90.86328125 66.75 C90.09282471 67.13671875 89.32236816 67.5234375 88.52856445 67.921875 C82.25591436 70.59639685 77.57911243 71.22305541 70.92578125 69.83984375 C69.78935684 69.62297913 69.78935684 69.62297913 68.62997437 69.4017334 C66.18718456 68.93040822 63.75004175 68.43519729 61.3125 67.9375 C59.62944209 67.60424724 57.94625453 67.27164858 56.26293945 66.93969727 C6.95485795 57.12476317 6.95485795 57.12476317 -1 47 C-4.00593001 40.57303536 -4.50798371 35.04425902 -4.4375 28 C-4.43427734 26.99702881 -4.43105469 25.99405762 -4.42773438 24.96069336 C-4.26572794 16.21304418 -2.69582283 8.29206218 0 0 Z " fill="#C44540" transform="translate(151,136)"/>
<path d="M0 0 C1.07809937 0.16495972 1.07809937 0.16495972 2.17797852 0.33325195 C3.30151733 0.4895105 3.30151733 0.4895105 4.44775391 0.64892578 C16.86565075 2.55866664 29.63212801 6.1838017 38.16625977 15.95825195 C42.0739732 21.38832522 46.36547852 29.05283813 46.36547852 35.89575195 C45.63844727 35.97051758 44.91141602 36.0452832 44.16235352 36.12231445 C34.09086458 37.43935531 25.56877556 40.59767469 18.36547852 47.89575195 C17.70547852 47.89575195 17.04547852 47.89575195 16.36547852 47.89575195 C16.09936768 48.46994873 15.83325684 49.04414551 15.55908203 49.63574219 C14.31710569 51.98734271 12.87587745 53.93937707 11.26782227 56.0559082 C5.6640261 63.96791743 1.91391897 72.89779114 -2.15234375 81.66162109 C-15.31710614 109.92635103 -15.31710614 109.92635103 -31.13452148 115.77075195 C-37.67148486 117.52911236 -49.45904156 118.98349191 -55.63452148 115.89575195 C-56.04312206 103.22913409 -55.12876779 91.32397923 -52.63452148 78.89575195 C-52.49530273 78.19708008 -52.35608398 77.4984082 -52.21264648 76.77856445 C-46.90183396 51.10963724 -33.89285609 26.78932269 -14.63452148 8.89575195 C-13.74764648 8.00887695 -12.86077148 7.12200195 -11.94702148 6.20825195 C-11.18389648 5.44512695 -10.42077148 4.68200195 -9.63452148 3.89575195 C-9.08795898 3.1790332 -8.54139648 2.46231445 -7.97827148 1.72387695 C-5.16090052 -0.4736724 -3.48499488 -0.39588083 0 0 Z " fill="#F65C56" transform="translate(370.634521484375,212.104248046875)"/>
<path d="M0 0 C0.61875 0.639375 1.2375 1.27875 1.875 1.9375 C2.91350921 2.96154529 3.95575618 3.98180308 5 5 C5.68191406 5.67804688 6.36382812 6.35609375 7.06640625 7.0546875 C28.53934765 27.50173878 55.37759824 30.7864925 83.81900024 30.24153137 C100.69428687 29.77035361 117.37359374 26.60262073 133.875 23.25 C147.48556045 20.4850829 160.83566869 18.85129334 174.0625 24.25 C176 26 176 26 176.875 28.8125 C175.67347583 33.18948089 173.61056107 34.28729712 169.80078125 36.5625 C164.68621645 39.1875486 159.44203612 41.16242936 154 43 C152.76765625 43.4228125 151.5353125 43.845625 150.265625 44.28125 C132.56240337 50.05451596 112.97857687 53.13974113 94.34375 53.16796875 C93.16298889 53.17296135 93.16298889 53.17296135 91.95837402 53.17805481 C90.30802996 53.18307637 88.65767591 53.18546463 87.00732422 53.18530273 C84.50601309 53.18749473 82.00514002 53.2057164 79.50390625 53.22460938 C77.88802232 53.22754338 76.27213632 53.22952813 74.65625 53.23046875 C73.92160522 53.23765427 73.18696045 53.24483978 72.43005371 53.25224304 C67.06298675 53.22902001 62.19511049 52.2958331 57 51 C56.00613281 50.80019531 55.01226562 50.60039062 53.98828125 50.39453125 C41.34210876 47.64375796 30.56456335 41.63563094 21 33 C20.36578125 32.43539062 19.7315625 31.87078125 19.078125 31.2890625 C10.42436966 23.13308955 4.7631301 12.77133372 0 2 C0 1.34 0 0.68 0 0 Z " fill="#EFAF94" transform="translate(118,359)"/>
<path d="M0 0 C0.9178125 0.00451172 1.835625 0.00902344 2.78125 0.01367188 C5.02090391 0.02533674 7.26041545 0.04170386 9.5 0.0625 C8.99336338 4.38945057 8.42529845 8.56862519 7.4375 12.8125 C5.12209549 25.38935629 5.35454729 38.92224565 9.5 51.0625 C8.29085937 51.08828125 7.08171875 51.1140625 5.8359375 51.140625 C-11.25429196 51.66451044 -25.63287865 54.2898385 -37.93359375 67.1328125 C-40.65583543 70.48639702 -42.59497731 74.2025102 -44.5 78.0625 C-44.87511719 78.81144531 -45.25023438 79.56039062 -45.63671875 80.33203125 C-45.92160156 80.90308594 -46.20648438 81.47414063 -46.5 82.0625 C-56.42515548 67.3120713 -57.89847592 49.58990417 -54.81640625 32.20703125 C-51.21079894 20.64215802 -44.36785049 12.00767311 -33.6875 6.375 C-22.67124513 1.1761301 -12.04795169 -0.11382513 0 0 Z " fill="#C54540" transform="translate(131.5,134.9375)"/>
<path d="M0 0 C1.2691626 0.00616333 1.2691626 0.00616333 2.56396484 0.01245117 C11.94943078 0.09642734 19.92154255 0.86318824 28.75 4.125 C44.89196362 10.04303976 61.7434845 13.67459884 78.75 16.125 C75.89044887 18.03136742 74.09715376 18.69740046 70.83203125 19.53515625 C69.836875 19.79804443 68.84171875 20.06093262 67.81640625 20.33178711 C66.74261719 20.61417236 65.66882813 20.89655762 64.5625 21.1875 C41.51000578 27.46041262 18.66720857 35.73038605 -1.25 49.125 C-3.25 50.125 -3.25 50.125 -6.19921875 49.2265625 C-7.45018156 48.74688531 -8.69600111 48.25366525 -9.9375 47.75 C-10.9282251 47.35095459 -10.9282251 47.35095459 -11.93896484 46.94384766 C-20.99041328 43.14904556 -31.18466796 37.99112155 -38.25 31.125 C-39.41464196 25.20984477 -36.88947233 19.19771874 -33.82421875 14.2265625 C-28.45333098 7.05649396 -21.29429343 2.45649652 -12.5546875 0.53125 C-8.35237509 0.01465368 -4.22968977 -0.02462519 0 0 Z " fill="#C44540" transform="translate(132.25,195.875)"/>
<path d="M0 0 C7.11922833 4.36455204 14.09190237 9.95109488 17.109375 17.90625 C18.4137507 26.0997556 16.34512231 31.9323946 12.109375 38.90625 C11.06652344 38.74769531 10.02367187 38.58914063 8.94921875 38.42578125 C-21.55727576 34.65350881 -45.07988577 41.56943394 -70.890625 56.90625 C-71.880625 57.40125 -71.880625 57.40125 -72.890625 57.90625 C-73.80398453 43.36861088 -69.26913695 33.40060496 -59.82421875 22.52734375 C-46.52863414 8.47065233 -18.68746252 -9.85507974 0 0 Z " fill="#F65C56" transform="translate(188.890625,247.09375)"/>
<path d="M0 0 C10.31245338 4.88917112 18.29961869 26.13808309 22.12890625 36.33203125 C23.60714967 40.94720437 24.83183019 45.6228089 26.03125 50.31640625 C26.66023844 52.76100417 27.34168872 55.19260177 28.0703125 57.609375 C29.14852095 61.62901177 29.10587282 64.79903089 28.9609375 68.9296875 C25.71033492 68.3368103 22.85704934 67.54612202 19.9609375 65.9296875 C18.6851225 63.84448449 18.20217459 61.95667464 17.6171875 59.5859375 C14.7438111 47.95560446 8.62335645 36.69808938 -1.19140625 29.59375 C-10.3667799 24.23200902 -20.52022281 20.43237888 -31.0390625 18.9296875 C-27.79004677 15.32148411 -24.07716182 12.96388608 -19.9140625 10.5546875 C-18.57136185 9.76866073 -17.22891456 8.982201 -15.88671875 8.1953125 C-15.23203613 7.81310547 -14.57735352 7.43089844 -13.90283203 7.03710938 C-10.57510485 5.05982741 -7.33086096 2.94402225 -4.08984375 0.828125 C-2.0390625 -0.0703125 -2.0390625 -0.0703125 0 0 Z " fill="#F65E57" transform="translate(409.0390625,184.0703125)"/>
<path d="M0 0 C-32.35364298 38.88266643 -32.35364298 38.88266643 -57.75390625 41.3671875 C-66.47494507 41.67130578 -73.86484027 40.07297771 -82 37 C-77.32036322 32.79828357 -71.93460835 30.20683992 -66.375 27.375 C-64.29395907 26.3052938 -62.21323427 25.23497237 -60.1328125 24.1640625 C-59.09672852 23.63200195 -58.06064453 23.09994141 -56.99316406 22.55175781 C-54.29077483 21.15074754 -51.60651321 19.72253812 -48.9296875 18.2734375 C-9.358478 -3.11949267 -9.358478 -3.11949267 0 0 Z " fill="#F65D57" transform="translate(351,173)"/>
<path d="M0 0 C3.45292204 -0.00220274 6.90553182 -0.0204826 10.35839844 -0.03930664 C21.47216828 -0.06656095 32.25385726 -0.00006903 43.19433594 2.18530273 C41.7545808 5.06481302 40.01551633 5.17123419 37.01464844 6.24389648 C35.93957031 6.6299707 34.86449219 7.01604492 33.75683594 7.41381836 C32.62246094 7.8127832 31.48808594 8.21174805 30.31933594 8.62280273 C29.22363281 9.01790039 28.12792969 9.41299805 26.99902344 9.82006836 C16.72355037 13.47857506 7.190429 16.74865873 -3.80566406 16.56030273 C-4.67433105 16.55015137 -5.54299805 16.54 -6.43798828 16.52954102 C-20.10977247 16.19957653 -30.7432488 11.45331679 -40.80566406 2.18530273 C-40.80566406 1.85530273 -40.80566406 1.52530273 -40.80566406 1.18530273 C-27.2017182 0.22791458 -13.63541556 -0.00097257 0 0 Z " fill="#C54842" transform="translate(289.8056640625,142.814697265625)"/>
<path d="M0 0 C6.76032067 -0.74516151 10.32642055 1.65307282 15.9375 5.1875 C24.67461374 10.39383962 32.94220946 12.831619 42.95288086 14.4284668 C48.61253379 15.34874713 52.60997532 16.19531194 57 20 C57.625 22.5625 57.625 22.5625 57 25 C53.27019478 29.02818963 47.65309942 29.86239064 42.38671875 30.30078125 C27.40722989 30.34823475 17.90283995 26.90192942 7.125 16.4375 C3.05425712 12.34487141 0.10337043 9.10186533 -0.1875 3.1875 C-0.125625 2.135625 -0.06375 1.08375 0 0 Z " fill="#FEFCFC" transform="translate(144,327)"/>
<path d="M0 0 C2.15661911 2.76198588 3.92143519 5.56655324 5.625 8.625 C16.10128824 26.23242503 32.94323722 36.41083716 51 45 C49.61735163 47.86867231 48.07851447 50.56024032 46.375 53.25 C45.70597656 54.30960937 45.70597656 54.30960937 45.0234375 55.390625 C44.68570313 55.92171875 44.34796875 56.4528125 44 57 C31.21210131 55.18627649 18.67120047 42.67496103 11.0390625 32.92578125 C4.18880989 23.09658737 -0.67221802 12.09992443 0 0 Z " fill="#DC6C4B" transform="translate(62,214)"/>
<path d="M0 0 C0.66 0.66 1.32 1.32 2 2 C1.67028521 5.29714793 1.3773161 6.6226839 -1 9 C-4.625 8.625 -4.625 8.625 -8 8 C-8.36075949 3.55063291 -8.36075949 3.55063291 -6.8125 1.1875 C-4.3864306 -0.40199375 -2.84602594 -0.36487512 0 0 Z " fill="#FEF8F8" transform="translate(220,347)"/>
<path d="M0 0 C1.69752187 0.25245197 3.38471545 0.57645775 5.0625 0.9375 C5.98160156 1.13214844 6.90070313 1.32679688 7.84765625 1.52734375 C8.91306641 1.76130859 8.91306641 1.76130859 10 2 C10 2.33 10 2.66 10 3 C7.48025747 3.65035371 4.95934065 4.29537493 2.4375 4.9375 C1.73302734 5.11990234 1.02855469 5.30230469 0.30273438 5.49023438 C-4.12137098 6.6115514 -8.47055438 7.43456329 -13 8 C-9.7476343 5.8317562 -6.39003219 3.99100461 -2.9609375 2.12109375 C-1.06157904 1.14921586 -1.06157904 1.14921586 0 0 Z " fill="#B34A45" transform="translate(346,149)"/>
<path d="M0 0 C-1.95585325 1.00484204 -3.91476237 2.00373805 -5.875 3 C-6.96554687 3.556875 -8.05609375 4.11375 -9.1796875 4.6875 C-12 6 -12 6 -14 6 C-12.98381435 3.21126325 -12.4267847 2.19969487 -9.6875 0.91796875 C-8.3571875 0.55638672 -8.3571875 0.55638672 -7 0.1875 C-6.113125 -0.06644531 -5.22625 -0.32039062 -4.3125 -0.58203125 C-2 -1 -2 -1 0 0 Z " fill="#B94D47" transform="translate(319,163)"/>
<path d="M0 0 C1.2065625 0.0309375 1.2065625 0.0309375 2.4375 0.0625 C2.7675 0.7225 3.0975 1.3825 3.4375 2.0625 C-2.3125 5.0625 -2.3125 5.0625 -4.5625 5.0625 C-3.43829114 0.08386076 -3.43829114 0.08386076 0 0 Z " fill="#E6DAD9" transform="translate(147.5625,231.9375)"/>
</svg>
