<?xml version="1.0" encoding="UTF-8"?>
<svg version="1.1" xmlns="http://www.w3.org/2000/svg" width="512" height="512">
<path d="M0 0 C112.86 0 225.72 0 342 0 C342 28.89819708 341.8585581 47.43255779 333.046875 73.21484375 C332.52833954 74.75840294 332.52833954 74.75840294 331.99932861 76.33314514 C330.92204692 79.53659814 329.83646197 82.73715037 328.75 85.9375 C327.65096074 89.19195771 326.55369198 92.44700279 325.45782471 95.70252991 C324.78225395 97.70769897 324.10457854 99.71216054 323.42449951 101.71580505 C322.96832245 103.0648568 322.96832245 103.0648568 322.50292969 104.44116211 C322.10252472 105.62094887 322.10252472 105.62094887 321.69403076 106.8245697 C318.21106064 117.74189376 319.96348417 127.36683478 323.68969727 137.93579102 C327.99385426 150.22234564 328.29869259 161.99070074 328.29052734 174.86352539 C328.29652094 176.75710309 328.30332838 178.65067837 328.31088257 180.54425049 C328.32846836 185.66242627 328.3332349 190.78053507 328.33451414 195.89873815 C328.33594088 199.10524827 328.34022041 202.31174166 328.34550858 205.5182476 C328.36398657 216.73019354 328.37218227 227.94209208 328.37060547 239.15405273 C328.36940572 249.56329319 328.39048122 259.97232575 328.4220928 270.38151366 C328.44835224 279.35180374 328.45896868 288.32202635 328.45769465 297.29235452 C328.45718772 302.63493482 328.46272065 307.9773303 328.48405075 313.3198719 C328.503596 318.35236523 328.50344771 323.38450056 328.48901749 328.41700745 C328.4869481 330.24938933 328.4915166 332.0817946 328.5037384 333.91413689 C328.60342888 349.91451721 326.35377963 364.5522849 319.953125 379.30078125 C316.5011779 392.69829724 321.22615009 404.37323882 325.5625 416.9375 C326.21200943 418.86698742 326.8594628 420.79716815 327.50488281 422.72802734 C328.76238244 426.48393463 330.02839405 430.23675625 331.30322266 433.98681641 C333.34862462 440.01307117 335.31994466 446.06075625 337.25 452.125 C337.51240479 452.93187256 337.77480957 453.73874512 338.04516602 454.57006836 C344.44312166 474.55311043 342 487.98976645 342 512 C182.28 512 22.56 512 -142 512 C-143.24313785 502.05489724 -144.42904104 492.16577505 -145.32861328 482.19335938 C-145.44594818 480.91640198 -145.56328308 479.63944458 -145.68417358 478.3237915 C-146.00061666 474.87825757 -146.3137185 471.43242834 -146.62593699 467.98650932 C-146.88837541 465.09343724 -147.15248799 462.2005189 -147.41657245 459.30759668 C-148.03944239 452.48393166 -148.65954443 445.66001913 -149.27783203 438.8359375 C-149.9136392 431.81901273 -150.55408542 424.80252216 -151.196787 417.7862258 C-151.75146277 411.72916566 -152.30332792 405.67185391 -152.85294521 399.61433268 C-153.17997462 396.01029427 -153.50802797 392.40635698 -153.83877945 388.80265808 C-154.20667332 384.7926311 -154.56869446 380.7820945 -154.93017578 376.77148438 C-155.03924255 375.59108582 -155.14830933 374.41068726 -155.26068115 373.19451904 C-155.77487251 367.43530124 -156.12074998 361.78211064 -156 356 C-157.26457031 356.03480469 -157.26457031 356.03480469 -158.5546875 356.0703125 C-159.65039062 356.08835937 -160.74609375 356.10640625 -161.875 356.125 C-162.96554688 356.14820313 -164.05609375 356.17140625 -165.1796875 356.1953125 C-168 356 -168 356 -170 354 C-170.24291992 351.40209961 -170.24291992 351.40209961 -170.23046875 348.15234375 C-170.22853516 346.99025391 -170.22660156 345.82816406 -170.22460938 344.63085938 C-170.21236328 343.41205078 -170.20011719 342.19324219 -170.1875 340.9375 C-170.18685547 339.71482422 -170.18621094 338.49214844 -170.18554688 337.23242188 C-170.14011056 328.14011056 -170.14011056 328.14011056 -169 327 C-166.63452481 326.90236029 -164.29829065 326.87002712 -161.93235779 326.87974548 C-161.18421328 326.87889106 -160.43606877 326.87803663 -159.66525322 326.87715632 C-157.13936053 326.87549927 -154.61353314 326.88102652 -152.08764648 326.88647461 C-150.28456626 326.88675646 -148.48148592 326.88659879 -146.67840576 326.8860321 C-141.76745461 326.88574404 -136.85652766 326.89164216 -131.94558215 326.89860606 C-126.81927788 326.90483816 -121.69297312 326.90544328 -116.56666565 326.90663147 C-106.85209374 326.90974521 -97.13753303 326.91795917 -87.42296606 326.92798096 C-76.36632283 326.93914077 -65.30967907 326.94465221 -54.25303161 326.94967639 C-31.50201486 326.96014175 -8.75100805 326.97774202 14 327 C13.99815641 326.1686148 13.99631283 325.3372296 13.99441338 324.4806509 C13.95013212 304.19656001 13.91709387 283.91247751 13.89637566 263.62834835 C13.88608868 253.8188649 13.87207798 244.00941383 13.84912109 234.19995117 C13.82910791 225.64421124 13.81626485 217.08849477 13.81182301 208.53273207 C13.80922899 204.0078192 13.80318641 199.48297344 13.78853989 194.9580822 C13.77483032 190.68751412 13.77080399 186.41703994 13.77378464 182.14645195 C13.77324039 180.59017932 13.76934341 179.0339031 13.76158905 177.47764969 C13.70060744 164.59243977 14.30411622 151.85592777 18.5 139.5625 C22.33523512 128.23112351 24.47567817 119.28919816 20.94921875 107.59375 C20.73065216 106.85999649 20.51208557 106.12624298 20.28689575 105.37025452 C18.42804895 99.22397235 16.40102676 93.13821312 14.3359375 87.05859375 C13.85384575 85.63904137 13.85384575 85.63904137 13.36201477 84.19081116 C12.03473299 80.29132971 10.70490156 76.39283331 9.36035156 72.49926758 C8.36307781 69.60567731 7.37989174 66.70758204 6.3984375 63.80859375 C5.95303116 62.53597939 5.95303116 62.53597939 5.49862671 61.23765564 C-1.47683022 40.48285708 0 22.44266264 0 0 Z " fill="#01C0F9" transform="translate(170,0)"/>
<path d="M0 0 C4.80354288 1.6466506 7.99731234 4.31203772 10.35546875 8.91796875 C11.58174176 12.87920215 11.29659685 16.90531574 11 21 C11.83144531 20.36771484 11.83144531 20.36771484 12.6796875 19.72265625 C13.40414062 19.17480469 14.12859375 18.62695312 14.875 18.0625 C15.59429687 17.51722656 16.31359375 16.97195312 17.0546875 16.41015625 C20.80706142 13.6900619 23.36063393 13.61972409 28 14 C33.25387664 15.91547586 36.55500391 18.91440813 39 24 C39.6667367 29.25055154 39.37409918 32.34317462 36.609375 37.01049805 C34.54599495 39.56123895 32.18860304 41.32231329 29.578125 43.30859375 C17.08491074 52.9598915 17.08491074 52.9598915 10.92822266 66.984375 C9.70957575 78.60441486 10.72226404 90.42345583 12 102 C15.8964782 99.7769872 19.79254187 97.55325011 23.68823242 95.32885742 C25.01201346 94.57312701 26.33590517 93.81759043 27.65991211 93.06225586 C29.56914325 91.97301041 31.4779679 90.88305557 33.38671875 89.79296875 C34.26670784 89.29122383 34.26670784 89.29122383 35.16447449 88.77934265 C36.77865887 87.85698267 38.38942692 86.92865145 40 86 C41.39859253 85.24360229 41.39859253 85.24360229 42.82543945 84.47192383 C46.11237234 82.24705368 46.58670461 79.16647189 47.5 75.5 C47.70230225 74.76040039 47.90460449 74.02080078 48.11303711 73.25878906 C49.23135402 69.13054784 50.25521537 64.97912252 51.28515625 60.828125 C51.49914062 59.98056641 51.713125 59.13300781 51.93359375 58.25976562 C52.34420254 56.621156 52.74194621 54.97925362 53.125 53.33398438 C54.46461192 47.92472383 56.10704506 43.92669635 60.94140625 40.70703125 C65.78983164 39.04182253 71.17391329 39.24574679 75.875 41.1875 C81.8157346 46.25459716 81.8157346 46.25459716 82.28125 50.6640625 C82.32396508 54.71131641 82.2861204 58.1416388 81 62 C81.556875 61.6390625 82.11375 61.278125 82.6875 60.90625 C88.14086619 57.5900138 91.61823241 56.16304687 98 57 C102.69994029 58.71728588 105.20959499 60.86606666 108 65 C109.67874726 70.03624179 109.5358338 73.70506833 107.5 78.625 C104.95143666 82.71562884 101.18201588 84.7973363 97 87 C97.51949219 87.21914062 98.03898438 87.43828125 98.57421875 87.6640625 C103.62284969 89.95974311 106.98859986 92.16350886 110 97 C111.2939522 101.47659239 111.37699942 104.88994616 109.875 109.3125 C107.15801362 113.20684715 104.51413003 115.49528999 100 117 C93.30181285 117.45989768 87.81622184 116.08278044 81.4375 114.125 C80.53064453 113.85558594 79.62378906 113.58617187 78.68945312 113.30859375 C74.86582783 112.17176534 71.06414092 111.02171753 67.28515625 109.7421875 C60.69903431 108.25424081 55.92962475 110.23986435 50.26171875 113.5625 C49.65487747 113.9138501 49.04803619 114.2652002 48.42280579 114.62719727 C46.5046295 115.7408843 44.59607665 116.86995664 42.6875 118 C41.38798805 118.75887221 40.08786269 119.51669503 38.78710938 120.2734375 C36.41617776 121.65366326 34.0499968 123.04094734 31.6862793 124.43359375 C30.14774187 125.330736 28.59297499 126.20351251 27 127 C27 127.66 27 128.32 27 129 C28.13695312 129.6290625 29.27390625 130.258125 30.4453125 130.90625 C31.18612061 131.31705811 31.92692871 131.72786621 32.69018555 132.15112305 C34.32324514 133.05583118 35.95754 133.9583129 37.59301758 134.85864258 C41.46328492 136.99718572 45.30354369 139.15726103 49.06640625 141.48046875 C49.68177246 141.85429687 50.29713867 142.228125 50.93115234 142.61328125 C52.59122334 143.62861519 54.23938386 144.66334883 55.88671875 145.69921875 C62.78337365 148.58075712 71.31668231 144.77512071 78.3125 143 C79.95702148 142.59007812 79.95702148 142.59007812 81.63476562 142.171875 C86.94982947 140.95845414 86.94982947 140.95845414 92 139 C97.60727817 138.62618146 101.16772538 138.81509173 106 142 C109.08272601 145.41599369 110.89457945 147.62953286 111.25 152.25 C110.91608175 157.25877368 109.35694748 160.30381565 106.25 164.1875 C103.33291059 166.53737758 100.49283904 167.65660037 97 169 C97.79664063 169.43699219 97.79664063 169.43699219 98.609375 169.8828125 C103.31889599 172.61570972 106.61025647 174.921795 109 180 C109.93076381 185.33851884 109.00543221 189.44003389 106 194 C101.44646808 198.1092849 98.55603055 199.38674848 92.53125 199.3671875 C88.13010152 198.72874929 84.65898748 196.42202481 81 194 C81.33 194.66 81.66 195.32 82 196 C82.58573029 200.88602864 83.13869133 205.86675549 80.765625 210.3125 C77.76882626 213.87305296 75.52903824 215.73447275 70.73046875 216.23828125 C66.67662895 216.35659608 63.53192203 216.19068903 59.6875 214.8125 C52.06500716 206.83547261 50.5273979 193.65572432 48.23046875 183.22753906 C47.9984375 182.22303711 47.76640625 181.21853516 47.52734375 180.18359375 C47.32874756 179.28181396 47.13015137 178.38003418 46.92553711 177.45092773 C44.92835599 172.16216453 40.58024287 169.9993615 35.80859375 167.3984375 C34.92881615 166.9146312 34.92881615 166.9146312 34.03126526 166.42105103 C32.17015942 165.39917938 30.3041027 164.38678981 28.4375 163.375 C26.56843507 162.35415299 24.70044423 161.33137616 22.83302307 160.30752563 C21.14239476 159.38182271 19.44907239 158.46104504 17.75561523 157.54052734 C15 156 15 156 12 154 C8.44294776 178.03211501 8.44294776 178.03211501 15.71694946 200.04940796 C20.90532179 206.10224882 27.03919452 211.16545012 33.45629883 215.86401367 C37.45571792 219.22238949 38.88009124 221.74095805 39.375 226.9375 C39.14608719 232.22240004 37.39630753 235.70841554 33.5 239.3125 C29.31846444 242.1350365 25.97028473 242.42121057 21 242 C16.98583056 239.75206511 13.58265539 236.87094943 10 234 C10.04640625 234.86882812 10.0928125 235.73765625 10.140625 236.6328125 C10.43493646 246.02975712 10.43493646 246.02975712 8.375 250.625 C4.64784928 254.35215072 1.25769307 256.12645327 -4 256.4375 C-8.99965908 256.23674887 -12.23478564 253.90366254 -15.59375 250.28125 C-17.43171787 247.29965768 -17.73762386 244.71058573 -18.1875 241.25 C-18.34605469 240.07953125 -18.50460937 238.9090625 -18.66796875 237.703125 C-18.83232422 236.36507812 -18.83232422 236.36507812 -19 235 C-19.47050781 235.42152344 -19.94101562 235.84304688 -20.42578125 236.27734375 C-21.04839844 236.82519531 -21.67101562 237.37304688 -22.3125 237.9375 C-22.92738281 238.48277344 -23.54226563 239.02804687 -24.17578125 239.58984375 C-27.87166384 242.44683222 -31.49223298 242.38201415 -36 242 C-40.77923201 239.56352878 -43.66932175 236.84063945 -46 232 C-46.88482645 228.4235686 -46.91584496 225.57768675 -46 222 C-42.5462506 216.43508548 -37.7033236 212.45875581 -32.39453125 208.7734375 C-26.34695369 204.20487406 -20.19555034 199.54050898 -18.51385498 191.74707031 C-16.87407238 179.29758359 -17.94866716 166.46323628 -19 154 C-25.01566653 157.30587719 -31.01458608 160.63964299 -37 164 C-38.13477783 164.63180176 -38.13477783 164.63180176 -39.29248047 165.27636719 C-41.37093081 166.43962665 -43.43677121 167.62250072 -45.5 168.8125 C-46.127854 169.16046631 -46.75570801 169.50843262 -47.40258789 169.86694336 C-51.25888408 172.12660515 -52.86998181 173.68214103 -54 178 C-54.17950195 178.68570068 -54.35900391 179.37140137 -54.54394531 180.07788086 C-55.18054266 182.56693537 -55.77833605 185.06359126 -56.375 187.5625 C-62.15929572 210.90671757 -62.15929572 210.90671757 -67.875 215.0703125 C-72.18521607 216.95603203 -76.43275035 216.80598523 -81 216 C-85.43041256 213.86390823 -88.16159481 211.59601298 -90 207 C-90.23965459 203.98035217 -90.15279662 201.0219776 -90 198 C-90 197.01 -90 196.02 -90 195 C-90.556875 195.28875 -91.11375 195.5775 -91.6875 195.875 C-97.1126335 198.51425413 -100.9667216 199.79124963 -107 199 C-111.3604287 196.77864953 -114.20212362 194.59457298 -116 190 C-116.66580537 185.09276785 -116.55644383 181.22881347 -114.5 176.6875 C-111.38079627 173.33435599 -107.99329403 171.19049624 -104 169 C-105.01320312 168.56300781 -105.01320312 168.56300781 -106.046875 168.1171875 C-115.62803235 163.71428571 -115.62803235 163.71428571 -118 158 C-118.93454209 153.40452445 -119.02767547 149.71092565 -116.56640625 145.61328125 C-112.59496368 140.8560909 -110.22163071 139.30744057 -104.09375 138.72265625 C-98.08230362 138.81398153 -92.25154989 140.855669 -86.5 142.4375 C-84.11554736 143.08558858 -81.73015372 143.73022675 -79.34375 144.37109375 C-78.29380859 144.65911865 -77.24386719 144.94714355 -76.16210938 145.24389648 C-69.17190217 146.91535045 -65.71175603 147.47517264 -59.3671875 143.66796875 C-58.76746124 143.31616043 -58.16773499 142.96435211 -57.54983521 142.60188293 C-55.64719647 141.48121016 -53.7611595 140.33564954 -51.875 139.1875 C-49.97884214 138.05564184 -48.07962062 136.92916086 -46.17874146 135.80525208 C-44.45600958 134.78316632 -42.74119676 133.74776758 -41.02685547 132.71166992 C-38.38795259 131.21938503 -35.84245893 130.03695279 -33 129 C-33 128.34 -33 127.68 -33 127 C-33.69367676 126.74694092 -34.38735352 126.49388184 -35.10205078 126.2331543 C-38.38862141 124.83463128 -41.31013331 123.11712525 -44.3671875 121.26953125 C-45.59449486 120.54137768 -46.82237765 119.81419329 -48.05078125 119.08789062 C-49.96750901 117.95116936 -51.88016909 116.80935345 -53.78369141 115.65063477 C-55.63493664 114.52674976 -57.49920791 113.42781579 -59.3671875 112.33203125 C-60.47175293 111.66921143 -61.57631836 111.0063916 -62.71435547 110.32348633 C-68.46659243 108.00643501 -73.73614642 110.09223806 -79.52734375 111.62890625 C-80.73197266 111.94150391 -81.93660156 112.25410156 -83.17773438 112.57617188 C-85.68155309 113.23301782 -88.18416839 113.8944685 -90.68554688 114.56054688 C-106.24070615 118.57612247 -106.24070615 118.57612247 -111.49609375 115.57421875 C-112.13675781 114.95160156 -112.77742187 114.32898438 -113.4375 113.6875 C-114.09621094 113.07261719 -114.75492188 112.45773438 -115.43359375 111.82421875 C-118.40637001 108.36215762 -118.35348688 104.63280049 -118.26171875 100.27734375 C-117.82696854 96.49436804 -116.62177605 94.74662253 -114 92 C-110.76679072 90.08439952 -107.44890784 88.48750605 -104 87 C-104.61488281 86.62488281 -105.22976562 86.24976563 -105.86328125 85.86328125 C-114.50228817 80.39328803 -114.50228817 80.39328803 -116 76 C-116.66260238 70.94553309 -116.58011322 67.18171211 -114.3125 62.5625 C-110.78660482 58.65542696 -108.57849233 57.21403286 -103.3125 56.5 C-97.94953391 56.6640678 -93.55658242 59.38556746 -89 62 C-89.15855469 61.24460938 -89.31710938 60.48921875 -89.48046875 59.7109375 C-90.58422446 53.9514904 -90.5191699 49.53690477 -87.3203125 44.58203125 C-84.42398541 41.11158015 -81.31846735 39.23800196 -76.79296875 38.7734375 C-71.91926168 38.98930868 -68.07083748 40.28781277 -64.5546875 43.71484375 C-59.9763822 50.44426234 -58.50827913 59.42362158 -56.8984375 67.28125 C-56.70588379 68.16925293 -56.51333008 69.05725586 -56.31494141 69.97216797 C-55.94726887 71.69867174 -55.61178791 73.43244955 -55.31396484 75.17236328 C-54.31798406 79.85130983 -53.14076714 82.3810976 -49.14453125 85.125 C-47.44619539 86.11229284 -45.72930971 87.06802371 -44 88 C-42.98502441 88.58442871 -41.97004883 89.16885742 -40.92431641 89.77099609 C-37.6124645 91.67132001 -34.27919191 93.52771734 -30.9375 95.375 C-29.78572266 96.01566406 -28.63394531 96.65632813 -27.44726562 97.31640625 C-24.63336316 98.88098273 -21.81759747 100.44209074 -19 102 C-15.38420257 77.83468662 -15.38420257 77.83468662 -22.90083313 55.74092102 C-28.36121193 49.38084653 -34.78518741 44.01646212 -41.47802734 39.00073242 C-44.30463345 36.75832806 -45.80779445 35.16062583 -46.40625 31.546875 C-46.57602995 26.48177327 -46.58979054 22.94356188 -43.25 18.9375 C-40.04163707 15.62381202 -37.23735245 14.11456967 -32.625 13.6875 C-26.64212406 14.20326517 -22.95869639 16.58453095 -19 21 C-18.97421875 20.27554688 -18.9484375 19.55109375 -18.921875 18.8046875 C-18.57009578 12.80845085 -18.17666165 8.62819264 -14 4 C-9.60759125 0.20655608 -5.7187273 -1.0729527 0 0 Z " fill="#EFFAFE" transform="translate(345,128)"/>
<path d="M0 0 C13.53 0 27.06 0 41 0 C41.103125 6.538125 41.20625 13.07625 41.3125 19.8125 C41.38078003 22.84207886 41.38078003 22.84207886 41.45043945 25.93286133 C41.61882958 38.41936038 39.85628448 49.15704484 36 61 C35.5444725 62.42474136 35.5444725 62.42474136 35.07974243 63.87826538 C32.71194613 71.25720178 30.24113299 78.59946448 27.75 85.9375 C26.65096074 89.19195771 25.55369198 92.44700279 24.45782471 95.70252991 C23.78225395 97.70769897 23.10457854 99.71216054 22.42449951 101.71580505 C21.96832245 103.0648568 21.96832245 103.0648568 21.50292969 104.44116211 C21.10252472 105.62094887 21.10252472 105.62094887 20.69403076 106.8245697 C17.21106064 117.74189376 18.96348417 127.36683478 22.68969727 137.93579102 C26.99385426 150.22234564 27.29869259 161.99070074 27.29052734 174.86352539 C27.29652094 176.75710309 27.30332838 178.65067837 27.31088257 180.54425049 C27.32846836 185.66242627 27.3332349 190.78053507 27.33451414 195.89873815 C27.33594088 199.10524827 27.34022041 202.31174166 27.34550858 205.5182476 C27.36398657 216.73019354 27.37218227 227.94209208 27.37060547 239.15405273 C27.36940572 249.56329319 27.39048122 259.97232575 27.4220928 270.38151366 C27.44835224 279.35180374 27.45896868 288.32202635 27.45769465 297.29235452 C27.45718772 302.63493482 27.46272065 307.9773303 27.48405075 313.3198719 C27.503596 318.35236523 27.50344771 323.38450056 27.48901749 328.41700745 C27.4869481 330.24938933 27.4915166 332.0817946 27.5037384 333.91413689 C27.60342888 349.91451721 25.35377963 364.5522849 18.953125 379.30078125 C15.5011779 392.69829724 20.22615009 404.37323882 24.5625 416.9375 C25.21200943 418.86698742 25.8594628 420.79716815 26.50488281 422.72802734 C27.76238244 426.48393463 29.02839405 430.23675625 30.30322266 433.98681641 C32.34862462 440.01307117 34.31994466 446.06075625 36.25 452.125 C36.51240479 452.93187256 36.77480957 453.73874512 37.04516602 454.57006836 C43.44312166 474.55311043 41 487.98976645 41 512 C-67.24 512 -175.48 512 -287 512 C-285 494 -285 494 -284 491 C-283.36634826 490.99902319 -282.73269653 490.99804638 -282.07984322 490.99703997 C-244.55268959 490.93881077 -207.02559652 490.86504658 -169.4985149 490.77101372 C-164.99599915 490.7597451 -160.49348308 490.74860672 -155.9909668 490.73754883 C-154.64637055 490.7342433 -154.64637055 490.7342433 -153.27461074 490.730871 C-138.74636153 490.69546592 -124.21811238 490.67061994 -109.68983599 490.64965298 C-94.79057337 490.62791646 -79.89136691 490.59488659 -64.99215204 490.55129844 C-55.79312922 490.52474459 -46.59417641 490.50707676 -37.39511714 490.50065396 C-31.09322187 490.49541146 -24.79141482 490.47923301 -18.48956677 490.45433434 C-14.84974812 490.4402801 -11.21008752 490.43116305 -7.57024002 490.43499184 C-3.63001538 490.43901108 0.30990277 490.42006094 4.25007629 490.39872742 C5.40862226 490.40357499 6.56716822 490.40842257 7.76082164 490.41341704 C8.81181346 490.4039605 9.86280528 490.39450396 10.94564533 490.38476086 C11.85583496 490.38286225 12.7660246 490.38096365 13.70379573 490.37900752 C16.05107652 490.16814797 16.05107652 490.16814797 17.79245967 488.69470245 C19.81028233 485.86282271 19.3586317 483.34722919 19 480 C17.43047827 477.87417651 16.51918655 477.10767998 13.9152832 476.56762695 C12.74485474 476.52835083 12.74485474 476.52835083 11.55078125 476.48828125 C10.70322266 476.45283203 9.85566406 476.41738281 8.98242188 476.38085938 C8.10134766 476.35830078 7.22027344 476.33574219 6.3125 476.3125 C5.41982422 476.27833984 4.52714844 476.24417969 3.60742188 476.20898438 C1.40507329 476.12654352 -0.79687938 476.05738449 -3 476 C-2.60444714 473.70459477 -2.18286568 471.41366217 -1.75 469.125 C-1.51796875 467.84882813 -1.2859375 466.57265625 -1.046875 465.2578125 C0 462 0 462 2.046875 460.6796875 C3.01367188 460.34324219 3.01367188 460.34324219 4 460 C5.81896973 456.36206054 5.25254202 452.75762607 4 449 C3.04738281 448.77957031 2.09476562 448.55914062 1.11328125 448.33203125 C-2 447 -2 447 -2.94384766 445.33349609 C-3.68748942 443.13470028 -4.27489045 440.9454601 -4.8125 438.6875 C-5.01552734 437.92759766 -5.21855469 437.16769531 -5.42773438 436.38476562 C-6.41997136 432.61557498 -7.28847525 428.83305267 -8 425 C-8.99 424.67 -9.98 424.34 -11 424 C-12.26801113 421.46397773 -12.37319393 419.25953517 -12.7109375 416.4375 C-13.52069124 410.97504249 -14.82846551 405.95595529 -16.6015625 400.75 C-16.96492706 399.68108521 -16.96492706 399.68108521 -17.33563232 398.59057617 C-18.34487194 395.65242703 -19.36888615 392.71992203 -20.41015625 389.79296875 C-25.48078084 375.44743286 -26.68447525 364.58159943 -21.125 350 C-15.74484265 335.58954321 -14.69921486 322.07248066 -14.70947266 306.85913086 C-14.70347521 305.06702397 -14.6966669 303.27491963 -14.68911743 301.4828186 C-14.67157131 296.64974101 -14.66676682 291.8167344 -14.66548586 286.98362803 C-14.6640569 283.95297636 -14.65977326 280.9223423 -14.65449142 277.89169502 C-14.63602688 267.28691605 -14.62781608 256.6821871 -14.62939453 246.07739258 C-14.63059407 236.24413483 -14.60951929 226.41109722 -14.5779072 216.5778951 C-14.55161784 208.09330382 -14.54103255 199.60878386 -14.54230535 191.12415224 C-14.54281139 186.075522 -14.53732899 181.02708756 -14.51594925 175.97849846 C-14.49635268 171.22174666 -14.49658608 166.46537314 -14.51098251 161.70860672 C-14.51304566 159.98026656 -14.50852228 158.25190134 -14.4962616 156.52360344 C-14.39391295 141.07370538 -16.59163642 126.41154373 -21.75 111.8125 C-26.30791117 98.82595924 -22.74629765 87.52688588 -18.375 74.875 C-17.88773437 73.44027344 -17.88773437 73.44027344 -17.390625 71.9765625 C-16.59928341 69.64908723 -15.80235801 67.3236955 -15 65 C-13.96359375 64.93941406 -12.9271875 64.87882812 -11.859375 64.81640625 C-10.48957127 64.73196629 -9.11978025 64.64732003 -7.75 64.5625 C-7.06808594 64.52318359 -6.38617188 64.48386719 -5.68359375 64.44335938 C-2.35551959 64.23333528 0.80255402 63.98065998 4 63 C5.26527076 57.09722843 5.26527076 57.09722843 3.6875 51.5 C-0.35190812 49.24544663 -4.43645667 49.17418104 -9 49 C-8.82984375 48.37996094 -8.6596875 47.75992188 -8.484375 47.12109375 C-7.6526355 44.08170526 -6.82618169 41.04090403 -6 38 C-5.82887695 37.37416016 -5.65775391 36.74832031 -5.48144531 36.10351562 C-4.94303689 34.13229354 -4.40870375 32.1600005 -3.875 30.1875 C-3.54242188 28.96417969 -3.20984375 27.74085937 -2.8671875 26.48046875 C-0.631416 17.50716964 -0.56155546 9.54644287 0 0 Z " fill="#08A9F1" transform="translate(471,0)"/>
<path d="M0 0 C61.05 0 122.1 0 185 0 C183.85117953 20.67876852 183.85117953 20.67876852 182.96850586 30.04931641 C182.87082413 31.11508408 182.7731424 32.18085175 182.67250061 33.27891541 C182.35635128 36.72008884 182.03566036 40.16082136 181.71484375 43.6015625 C181.49178602 46.01961692 181.26901792 48.43769807 181.04652405 50.85580444 C180.46579698 57.1588785 179.88118846 63.46158645 179.29571533 69.76422119 C178.69670929 76.22019789 178.1014515 82.67652012 177.50585938 89.1328125 C176.3408663 101.75554612 175.17141719 114.37786093 174 127 C160.8 127 147.6 127 134 127 C135.65 125.35 137.3 123.7 139 122 C141.55397672 117.86079635 142.69397598 114.85783188 142 110 C140.4347227 105.86130069 138.78465626 103.49041016 135 101.125 C132.64927595 100.24347848 130.43134088 99.57639547 128 99 C127.99742187 98.02160156 127.99484375 97.04320312 127.9921875 96.03515625 C127.74789638 87.75368714 127.2304138 81.07429865 121 75 C116.48522421 72.05157499 112.90837587 71.86498027 107.5625 71.5625 C99.73221172 71.08657652 94.83070282 69.31452814 89.5625 63.4375 C85.90281123 58.96011511 85.86957594 54.90839781 85.9375 49.3125 C85.94201172 48.61060547 85.94652344 47.90871094 85.95117188 47.18554688 C85.96293073 45.45699462 85.98086546 43.72848635 86 42 C75.05678052 44.0792117 67.44699935 47.60580095 61 57 C57.68490642 63.93763536 56.67685192 71.18402555 58.7265625 78.64453125 C62.42110039 88.66183519 67.03076976 92.41978312 76.55078125 96.8984375 C77.35902344 97.26195312 78.16726562 97.62546875 79 98 C79 98.33 79 98.66 79 99 C78.24380371 99.0093457 77.48760742 99.01869141 76.70849609 99.02832031 C73.26334866 99.082192 69.81953438 99.16580841 66.375 99.25 C65.18519531 99.26417969 63.99539062 99.27835937 62.76953125 99.29296875 C54.76486158 99.51656287 50.7267344 100.07629232 45.15234375 105.9453125 C43.01266389 109.76047048 43.38493337 113.76807413 44 118 C45.97014179 121.7364758 48.01148506 124.01148506 51 127 C37.8 127 24.6 127 11 127 C9.56186971 111.62285445 8.12681324 96.24542925 6.69733429 80.86747742 C6.03345736 73.72673049 5.36821182 66.58611607 4.69970703 59.44580078 C4.11682622 53.21999936 3.53655126 46.99396142 2.95936251 40.76762962 C2.65385159 37.47295713 2.34667702 34.17845372 2.03715515 30.88415527 C1.69126653 27.20042309 1.349985 23.51629075 1.00976562 19.83203125 C0.9069075 18.74805557 0.80404938 17.6640799 0.69807434 16.54725647 C0.60551865 15.53497482 0.51296295 14.52269318 0.41760254 13.47973633 C0.33648476 12.60956375 0.25536697 11.73939117 0.17179108 10.84284973 C-0.04624677 7.2346948 0 3.61473685 0 0 Z " fill="#0AB69F" transform="translate(14,356)"/>
<path d="M0 0 C0.05607422 1.51980469 0.05607422 1.51980469 0.11328125 3.0703125 C0.17898388 4.42190939 0.24542971 5.77347029 0.3125 7.125 C0.33505859 7.79015625 0.35761719 8.4553125 0.38085938 9.140625 C0.71969147 15.42442028 2.33435858 19.40677777 6.875 23.75 C11.72745399 27.24376687 15.36860151 28.18992053 21.3125 28.375 C28.22201885 28.85851035 32.76849841 29.90748772 37.81640625 34.73828125 C43.28911142 41.48075561 42.58618568 48.76083457 42 57 C43.09828125 57.13019531 44.1965625 57.26039063 45.328125 57.39453125 C49.51556502 58.08501338 51.06661944 58.98513665 54 62 C56.98954386 66.28501287 57.27082279 69.53700579 56.91015625 74.55859375 C56 77 56 77 50 84 C68.81 84.495 68.81 84.495 88 85 C87.525625 89.599375 87.05125 94.19875 86.5625 98.9375 C86.41498291 100.39019287 86.26746582 101.84288574 86.11547852 103.33959961 C85.93650024 105.04128296 85.93650024 105.04128296 85.75390625 106.77734375 C85.57323608 108.52905884 85.57323608 108.52905884 85.38891602 110.31616211 C85 113 85 113 84 114 C81.98771955 114.09674566 79.97198631 114.12187008 77.9573822 114.12025452 C76.64339951 114.12162918 75.32941681 114.12300385 73.97561646 114.12442017 C72.50579812 114.12088054 71.03598 114.11724573 69.56616211 114.11352539 C68.02908836 114.11324353 66.49201447 114.11340123 64.9549408 114.1139679 C60.7691714 114.11425591 56.58343041 114.10835852 52.39766765 114.10139394 C48.02809844 114.09516109 43.65852865 114.09455666 39.28895569 114.09336853 C31.00872953 114.09025501 22.7285165 114.08204135 14.44829613 114.07201904 C5.02402841 114.06085854 -4.40023992 114.05534761 -13.8245126 114.05032361 C-33.21634919 114.03985875 -52.60817354 114.02225891 -72 114 C-72.31671357 111.60466145 -72.62836812 109.20882016 -72.9375 106.8125 C-73.02451172 106.15830078 -73.11152344 105.50410156 -73.20117188 104.83007812 C-74.04771403 98.21450798 -74.48598823 91.682153 -75 85 C-62.46 84.67 -49.92 84.34 -37 84 C-38.65 82.02 -40.3 80.04 -42 78 C-43.88057482 74.23885037 -43.65340782 70.08532555 -43 66 C-40.60597532 61.71882883 -37.50805778 58.8980777 -33 57 C-30.43457031 56.68115234 -30.43457031 56.68115234 -27.578125 56.5859375 C-26.55332031 56.54726563 -25.52851562 56.50859375 -24.47265625 56.46875 C-22.87744141 56.42234375 -22.87744141 56.42234375 -21.25 56.375 C-20.17105469 56.33632813 -19.09210938 56.29765625 -17.98046875 56.2578125 C-15.32048225 56.16365369 -12.6605006 56.07802613 -10 56 C-10.70616455 55.62182129 -11.4123291 55.24364258 -12.13989258 54.85400391 C-20.23369275 50.44411926 -25.61554032 44.99752321 -28.53125 36.12890625 C-30.12494689 28.89086621 -29.37731966 21.61143142 -26 15 C-19.52151431 5.7258887 -11.53186148 -0.17593686 0 0 Z " fill="#F8DAA6" transform="translate(100,398)"/>
<path d="M0 0 C0.81282206 0.0015486 1.62564412 0.0030972 2.46309716 0.00469273 C3.32008644 0.00242718 4.17707573 0.00016162 5.06003439 -0.00217259 C7.95437621 -0.00854269 10.84867156 -0.00768131 13.74301964 -0.00685817 C15.80886194 -0.00984778 17.87470367 -0.01324985 19.94054466 -0.01703578 C25.5685424 -0.02589998 31.19652495 -0.0282149 36.82452899 -0.02885157 C41.51420671 -0.0297986 46.20388085 -0.03347451 50.89355719 -0.03702366 C61.95275484 -0.04517736 73.01194434 -0.04760706 84.07114464 -0.04689723 C95.49948648 -0.04629614 106.92778115 -0.05685213 118.35611105 -0.0726409 C128.15056349 -0.08569284 137.94500047 -0.09108212 147.73946154 -0.09044182 C153.59694124 -0.09018615 159.45437905 -0.09307531 165.31185013 -0.10361987 C170.81848113 -0.11326154 176.32502987 -0.11340723 181.83166367 -0.10610324 C183.85781018 -0.10505249 185.88396171 -0.10744909 187.91009957 -0.1134637 C190.66606381 -0.1211177 193.42173928 -0.11658297 196.17769676 -0.10883266 C196.9882881 -0.11397622 197.79887944 -0.11911978 198.63403416 -0.12441921 C204.15561758 -0.0898657 204.15561758 -0.0898657 206.38388878 2.1384055 C206.84145106 6.28697012 206.70791055 10.46752625 206.69638878 14.6384055 C206.71250206 15.80500706 206.72861534 16.97160863 206.74521691 18.17356175 C206.74586144 19.28602269 206.74650597 20.39848363 206.74717003 21.5446555 C206.75015099 22.56881566 206.75313195 23.59297581 206.75620323 24.64817113 C206.63333946 25.46994847 206.5104757 26.29172581 206.38388878 27.1384055 C202.58149148 29.67333704 199.5449111 29.41696171 195.14009911 29.39237279 C194.28956807 29.39549277 193.43903704 29.39861275 192.56273234 29.40182728 C189.70218546 29.40982822 186.84184949 29.4034755 183.98130089 29.39719456 C181.93486713 29.39990347 179.88843434 29.40346384 177.84200341 29.40781468 C172.27608437 29.41695226 166.71023925 29.41338894 161.14431888 29.40705651 C155.32895554 29.40200428 149.51359867 29.40668573 143.69823509 29.40982884 C133.9322272 29.41347047 124.16624952 29.40866393 114.4002462 29.39914769 C103.09568983 29.38825973 91.79120557 29.39179042 80.48665094 29.4028005 C70.79406414 29.41186415 61.10149911 29.41316327 51.40890944 29.40792316 C45.61406261 29.40479877 39.81924973 29.40440701 34.02440506 29.41099614 C28.57847695 29.41675569 23.13264222 29.41279831 17.68672425 29.40120763 C15.68315463 29.3985537 13.67957722 29.39933853 11.67601067 29.40373296 C8.95079776 29.40916099 6.22588815 29.40238791 3.50069481 29.39237279 C2.69924961 29.39683423 1.8978044 29.40129567 1.07207298 29.40589231 C-4.38781093 29.36670579 -4.38781093 29.36670579 -6.61611122 27.1384055 C-6.85903114 24.54050511 -6.85903114 24.54050511 -6.84657997 21.29074925 C-6.84464638 20.12865941 -6.84271278 18.96656956 -6.84072059 17.76926488 C-6.8284745 16.55045628 -6.81622841 15.33164769 -6.80361122 14.0759055 C-6.80296669 12.85322972 -6.80232216 11.63055394 -6.80165809 10.37082738 C-6.74998128 0.02972255 -6.74998128 0.02972255 0 0 Z " fill="#EEF9FD" transform="translate(6.616111218929291,326.8615944981575)"/>
<path d="M0 0 C14.19 0 28.38 0 43 0 C41.85117953 20.67876852 41.85117953 20.67876852 40.96850586 30.04931641 C40.87082413 31.11508408 40.7731424 32.18085175 40.67250061 33.27891541 C40.35635128 36.72008884 40.03566036 40.16082136 39.71484375 43.6015625 C39.49178602 46.01961692 39.26901792 48.43769807 39.04652405 50.85580444 C38.46579698 57.1588785 37.88118846 63.46158645 37.29571533 69.76422119 C36.69670929 76.22019789 36.1014515 82.67652012 35.50585938 89.1328125 C34.3408663 101.75554612 33.17141719 114.37786093 32 127 C18.8 127 5.6 127 -8 127 C-6.35 125.35 -4.7 123.7 -3 122 C-0.44602328 117.86079635 0.69397598 114.85783188 0 110 C-2.04472453 104.84373814 -3.6641915 102.82908867 -8.75 100.5625 C-10.15835797 100.01960072 -11.57272187 99.49100808 -13 99 C-13.56093761 94.51249916 -12.05184496 91.6976642 -9.97265625 87.8671875 C-8.39749857 84.84339082 -7.83530203 82.12808378 -7.56689453 78.77685547 C-7.49646439 77.92150208 -7.42603424 77.06614868 -7.35346985 76.18487549 C-7.28065292 75.25503845 -7.207836 74.32520142 -7.1328125 73.3671875 C-7.05350998 72.39416687 -6.97420746 71.42114624 -6.89250183 70.41864014 C-6.72216304 68.32538199 -6.55343313 66.23199244 -6.38613892 64.13848877 C-5.94937452 58.68018429 -5.49917203 53.22298449 -5.05078125 47.765625 C-4.96171005 46.67774689 -4.87263885 45.58986877 -4.78086853 44.46902466 C-4.05016047 35.55880929 -3.29864193 26.65069908 -2.50164795 17.74615479 C-2.37592463 16.33626041 -2.25176951 14.92622529 -2.12921143 13.51605225 C-1.96121647 11.58587164 -1.7874234 9.65619822 -1.61328125 7.7265625 C-1.51829346 6.66002441 -1.42330566 5.59348633 -1.32543945 4.49462891 C-1 2 -1 2 0 0 Z " fill="#01998D" transform="translate(156,356)"/>
<path d="M0 0 C53.46 0 106.92 0 162 0 C162 6.54568275 161.87132699 12.63203864 161.0625 19.0625 C160.93198242 20.19848633 160.93198242 20.19848633 160.79882812 21.35742188 C160.13157685 26.86842315 160.13157685 26.86842315 159 28 C156.98771955 28.09674566 154.97198631 28.12187008 152.9573822 28.12025452 C151.64339951 28.12162918 150.32941681 28.12300385 148.97561646 28.12442017 C147.50579812 28.12088054 146.03598 28.11724573 144.56616211 28.11352539 C143.02908836 28.11324353 141.49201447 28.11340123 139.9549408 28.1139679 C135.7691714 28.11425591 131.58343041 28.10835852 127.39766765 28.10139394 C123.02809844 28.09516109 118.65852865 28.09455666 114.28895569 28.09336853 C106.00872953 28.09025501 97.7285165 28.08204135 89.44829613 28.07201904 C80.02402841 28.06085854 70.59976008 28.05534761 61.1754874 28.05032361 C41.78365081 28.03985875 22.39182646 28.02225891 3 28 C2.68416773 25.58372981 2.37232095 23.16704284 2.0625 20.75 C1.97548828 20.08742188 1.88847656 19.42484375 1.79882812 18.7421875 C1.00290901 12.49274855 0.52497276 6.29967317 0 0 Z " fill="#DEF5FC" transform="translate(25,484)"/>
<path d="M0 0 C1.12231105 -0.0034177 2.24462209 -0.0068354 3.40094256 -0.01035666 C7.17532776 -0.01696436 10.94900756 0.00508931 14.72332764 0.0269165 C17.42340705 0.02804436 20.12344277 0.02758864 22.82351685 0.02514648 C28.64358115 0.02304827 34.4634662 0.03560654 40.28348541 0.05809784 C48.69824231 0.09059528 57.11291246 0.10102253 65.52772531 0.10604981 C79.1798893 0.11480601 92.83195773 0.1414304 106.48406982 0.17926025 C119.74643475 0.21597193 133.00877373 0.24428781 146.2711792 0.2612915 C147.49725804 0.26286784 147.49725804 0.26286784 148.74810615 0.26447603 C152.84865897 0.26969615 156.94921198 0.27475099 161.04976511 0.27972364 C195.07220748 0.32119582 229.0945316 0.39195026 263.11688232 0.48101807 C261.63188232 7.90601807 261.63188232 7.90601807 260.11688232 15.48101807 C225.66119223 15.57222151 191.20553309 15.64303247 156.74974839 15.68527938 C152.68413789 15.69028235 148.61852763 15.69545963 144.55291748 15.70074463 C143.74351012 15.70179387 142.93410276 15.70284311 142.1001679 15.70392415 C128.98548408 15.72134073 115.87087022 15.7528853 102.75622794 15.78962925 C89.30454538 15.82700385 75.85289951 15.84924654 62.40116715 15.85737205 C54.09725315 15.86286707 45.79353687 15.8802373 37.48968372 15.91268393 C31.79939186 15.9337889 26.10920259 15.94022727 20.41887441 15.93502358 C17.13324145 15.93245546 13.84802877 15.93862758 10.56244087 15.95783997 C7.0033837 15.97763736 3.44518395 15.97299396 -0.1138916 15.96203613 C-1.15668722 15.9736875 -2.19948285 15.98533886 -3.27387834 15.9973433 C-10.21474257 15.9392756 -10.21474257 15.9392756 -13.52494431 13.66970444 C-15.53442108 10.43144744 -15.41565522 8.20878088 -14.88311768 4.48101807 C-11.43666299 -1.10217995 -5.8568033 -0.06471484 0 0 Z " fill="#61DAFA" transform="translate(206.88311767578125,20.51898193359375)"/>
<path d="M0 0 C1.11006039 -0.0034177 2.22012078 -0.0068354 3.36381936 -0.01035666 C7.09674884 -0.016964 10.82896498 0.00508868 14.56182861 0.0269165 C17.23235194 0.02804437 19.90283108 0.02758862 22.573349 0.02514648 C28.32957136 0.02304832 34.08561247 0.03560604 39.84178925 0.05809784 C48.16423899 0.09059599 56.48660102 0.1010226 64.80910733 0.10604981 C78.31152897 0.1148059 91.81385398 0.14142999 105.31622314 0.17926025 C118.4330802 0.21597222 131.54991103 0.24428796 144.66680908 0.2612915 C145.87944644 0.26286784 145.87944644 0.26286784 147.11658153 0.26447603 C151.17218214 0.26969615 155.22778293 0.27475099 159.28338385 0.27972364 C192.93258394 0.32119548 226.5816671 0.39165243 260.23077393 0.48101807 C256.73214018 7.64488717 252.41870895 11.19076612 245.23077393 14.48101807 C242.36259819 15.33576926 239.80177944 15.60822506 236.81417847 15.61523914 C235.48920884 15.62192591 235.48920884 15.62192591 234.13747215 15.62874776 C233.17133303 15.6285634 232.2051939 15.62837904 231.20977783 15.62818909 C230.1801272 15.63186577 229.15047657 15.63554246 228.0896244 15.63933057 C224.62885673 15.65037083 221.16811908 15.65421177 217.70733643 15.65802002 C215.23050847 15.66428418 212.75368145 15.67093094 210.27685547 15.67793274 C202.83906588 15.69715708 195.40128426 15.70775817 187.96347713 15.71666053 C184.4613683 15.72104507 180.95926097 15.72641126 177.45715332 15.7316494 C165.81788446 15.74865555 154.17861653 15.76315184 142.53933716 15.77039814 C139.52046711 15.77230803 136.50159707 15.77422837 133.48272705 15.77618408 C132.73240338 15.77666782 131.9820797 15.77715156 131.20901895 15.77764996 C119.04192575 15.78595843 106.8749306 15.8113118 94.70788026 15.84376476 C82.21883527 15.8768055 69.7298402 15.89484398 57.24075127 15.89804238 C50.22737415 15.9002097 43.21414024 15.90899123 36.20080566 15.93450356 C29.60821495 15.95843023 23.01583625 15.96205515 16.42319489 15.95174217 C13.99957675 15.9512445 11.57594629 15.95763256 9.15236664 15.97129822 C5.85185338 15.98887221 2.55228227 15.98198225 -0.74822998 15.96876526 C-1.71436911 15.9797345 -2.68050823 15.99070375 -3.6759243 16.0020054 C-10.11254584 15.93947722 -10.11254584 15.93947722 -13.36428833 13.66928387 C-15.4379129 10.43950251 -15.30508855 8.23205541 -14.76922607 4.48101807 C-11.32320022 -1.07222719 -5.84207083 -0.06527464 0 0 Z " fill="#61DAFA" transform="translate(206.76922607421875,475.51898193359375)"/>
<path d="M0 0 C1.06514131 -0.0034177 2.13028263 -0.0068354 3.22770095 -0.01035666 C6.80862672 -0.01696261 10.38880843 0.00508626 13.96966553 0.0269165 C16.53179914 0.02804439 19.09393404 0.02741228 21.65606689 0.02514648 C27.17822033 0.02423464 32.70013274 0.03560406 38.22223663 0.05809784 C46.20622682 0.09059872 54.19012558 0.10102288 62.17417476 0.10604981 C75.1275412 0.11480548 88.08080691 0.14142839 101.03411865 0.17926025 C113.61744686 0.21597333 126.20074771 0.24428852 138.78411865 0.2612915 C139.55968661 0.2623424 140.33525456 0.26339329 141.13432458 0.26447603 C145.0251004 0.26969616 148.91587641 0.274751 152.80665255 0.27972364 C185.08730107 0.32119415 217.36782312 0.39194717 249.64837646 0.48101807 C249.64837646 5.10101807 249.64837646 9.72101807 249.64837646 14.48101807 C216.44960517 14.57220798 183.25086856 14.64302545 150.05199991 14.68527938 C146.13531337 14.6902824 142.21862708 14.69545967 138.30194092 14.70074463 C137.13229563 14.70231849 137.13229563 14.70231849 135.93902115 14.70392415 C123.30218334 14.72134401 110.66541809 14.75289036 98.02862336 14.78962925 C85.06850119 14.82699476 72.10841709 14.8492446 59.14824325 14.85737205 C51.14681138 14.86286897 43.14558457 14.88024939 35.1442158 14.91268393 C29.01559656 14.93626619 22.88713467 14.93884904 16.75847626 14.93344879 C14.23929643 14.9345534 11.72010917 14.94256477 9.20097542 14.95783997 C5.77292906 14.97761486 2.34577449 14.97300246 -1.08229065 14.96203613 C-2.08908963 14.9736875 -3.09588861 14.98533886 -4.13319665 14.9973433 C-5.04833604 14.98937911 -5.96347543 14.98141491 -6.90634632 14.97320938 C-7.69806321 14.97472826 -8.4897801 14.97624714 -9.30548841 14.97781205 C-11.35162354 14.48101807 -11.35162354 14.48101807 -13.10210961 12.63775611 C-14.81288982 9.68484403 -14.84153149 7.8403869 -14.35162354 4.48101807 C-10.87621775 -0.95084558 -5.8005945 -0.06758517 0 0 Z " fill="#61DAFA" transform="translate(220.35162353515625,447.51898193359375)"/>
<path d="M0 0 C1.03161847 -0.0034177 2.06323694 -0.0068354 3.12611657 -0.01035666 C6.59959963 -0.01697059 10.07231816 0.00509913 13.54573059 0.0269165 C16.02889996 0.02804422 18.51207067 0.02741261 20.99523926 0.02514648 C26.3498953 0.02423419 31.70431116 0.03561469 37.05890465 0.05809784 C44.80073848 0.09058353 52.542478 0.10102131 60.28437261 0.10604981 C72.8445271 0.11480787 85.40457779 0.14143726 97.9646759 0.17926025 C110.16681905 0.21596715 122.36893402 0.24428536 134.57112122 0.2612915 C135.69902329 0.26286784 135.69902329 0.26286784 136.84971126 0.26447603 C140.62188514 0.26969612 144.39405921 0.27475097 148.16623342 0.27972364 C179.46834508 0.3212016 210.77032775 0.39196087 242.07234192 0.48101807 C241.59423015 2.25213651 241.11481412 4.0229029 240.63484192 5.79351807 C240.36800598 6.77965088 240.10117004 7.76578369 239.82624817 8.78179932 C239.29154767 10.69619333 238.70089654 12.59535422 238.07234192 14.48101807 C206.67411078 14.57222745 175.2759146 14.64303553 143.87758248 14.68527938 C140.17248254 14.69028234 136.46738287 14.69545961 132.76228333 14.70074463 C131.65583441 14.70231849 131.65583441 14.70231849 130.527033 14.70392415 C118.57632031 14.7213393 106.62568442 14.75288307 94.67501733 14.78962925 C82.41662828 14.82700784 70.15827952 14.84924738 57.89983582 14.85737205 C50.33294056 14.86286625 42.76626236 14.88023196 35.19943389 14.91268393 C29.40156523 14.93628586 23.60383631 14.93884571 17.80592918 14.93344879 C15.42423603 14.93455245 13.04253492 14.94255148 10.66089058 14.95783997 C7.41709888 14.97764762 4.17424718 14.97299045 0.93043518 14.96203613 C-0.49368411 14.97951318 -0.49368411 14.97951318 -1.9465735 14.9973433 C-8.2838872 14.9392206 -8.2838872 14.9392206 -11.51644516 12.63845444 C-13.43881297 9.69957387 -13.43048906 7.92900189 -12.92765808 4.48101807 C-10.54231198 -1.19373148 -5.30061312 -0.06355281 0 0 Z " fill="#61DAFA" transform="translate(218.9276580810547,49.51898193359375)"/>
<path d="M0 0 C33.16471491 -0.11440784 66.32937871 -0.20252973 99.4942459 -0.25532665 C103.40835501 -0.26158029 107.32246373 -0.26805189 111.23657227 -0.2746582 C112.40543062 -0.27662553 112.40543062 -0.27662553 113.59790228 -0.2786326 C126.22047774 -0.30039786 138.84293952 -0.33982551 151.46544751 -0.38576398 C164.41427666 -0.43249754 177.3630462 -0.46028881 190.31195623 -0.47044247 C198.30422013 -0.47730811 206.29616272 -0.49900355 214.28832773 -0.53958233 C220.4135082 -0.5691004 226.53844296 -0.57228198 232.66368484 -0.56553841 C235.17880675 -0.56691724 237.6939405 -0.57690637 240.2089901 -0.59602737 C243.63649851 -0.62081361 247.06261923 -0.6149565 250.49015808 -0.60127258 C251.49113138 -0.61583679 252.49210468 -0.630401 253.5234105 -0.64540654 C258.17578564 -0.59501547 260.30894059 -0.51937743 264.12170887 2.34617329 C266 5 266 5 266.5625 8.0625 C265.88178485 11.61734581 264.79927541 12.777046 262 15 C259.66342773 16.16828614 258.31191018 16.12430527 255.70900536 16.12304783 C254.8028238 16.12503888 253.89664225 16.12702993 252.96300066 16.12908131 C251.96107073 16.12616847 250.9591408 16.12325563 249.92684937 16.12025452 C248.337826 16.12153615 248.337826 16.12153615 246.71670115 16.12284368 C243.14363678 16.12449943 239.57061868 16.11897555 235.99755859 16.11352539 C233.44557191 16.11324351 230.89358515 16.11340126 228.34159851 16.1139679 C222.83532491 16.1141961 217.32906638 16.11134763 211.82279587 16.10573006 C203.86159291 16.0976132 195.90039568 16.09499965 187.93918903 16.09374207 C175.02358372 16.09155184 162.1079847 16.08489254 149.19238281 16.07543945 C136.64388053 16.06626458 124.09537996 16.05918411 111.546875 16.05493164 C110.38721539 16.05453756 110.38721539 16.05453756 109.20412831 16.05413551 C105.32579513 16.0528305 101.44746195 16.05156678 97.56912875 16.05032361 C65.37941458 16.03995191 33.18970817 16.02233438 1 16 C1 15.67 1 15.34 1 15 C81.85 15 162.7 15 246 15 C246.66 12.03 247.32 9.06 248 6 C248.66 4.35 249.32 2.7 250 1 C167.5 1 85 1 0 1 C0 0.67 0 0.34 0 0 Z " fill="#30CDFA" transform="translate(211,49)"/>
<path d="M0 0 C11.22 0 22.44 0 34 0 C34 3.63 34 7.26 34 11 C35.96042823 14.78565452 37.98545826 16.98545826 41 20 C27.8 20 14.6 20 1 20 C0 11 0 11 0 0 Z " fill="#01998D" transform="translate(24,463)"/>
<path d="M0 0 C32.9269768 -0.04575534 65.85394536 -0.08100797 98.78094669 -0.10213066 C102.66630175 -0.10463214 106.55165675 -0.10722078 110.43701172 -0.10986328 C111.5972917 -0.11065021 111.5972917 -0.11065021 112.78101167 -0.11145304 C125.31368067 -0.12016097 137.84633136 -0.13593308 150.37898949 -0.15430559 C163.23402873 -0.17299385 176.08905836 -0.18411445 188.94411063 -0.18817699 C196.87944741 -0.19092428 204.81473246 -0.19960838 212.75005332 -0.21583293 C218.82991133 -0.22763227 224.90972462 -0.22891406 230.98959541 -0.22621536 C233.48738232 -0.22676727 235.98517112 -0.23076769 238.4829464 -0.23841095 C241.88415085 -0.24831145 245.28513106 -0.24598673 248.68634033 -0.24050903 C249.68244457 -0.24633472 250.67854882 -0.2521604 251.70483804 -0.25816262 C252.61500169 -0.25418052 253.52516533 -0.25019842 254.4629097 -0.24609566 C255.24817134 -0.2468551 256.03343298 -0.24761454 256.84249043 -0.24839699 C259.33381712 0.03843282 260.88741801 0.6552869 263 2 C265.32579101 5.48868651 265.41865457 6.89718519 265 11 C263.22015595 14.1359157 262.47691793 14.84102736 259 16 C257.52560784 16.08977556 256.04746283 16.12375901 254.57034016 16.12304783 C253.20285616 16.1260344 253.20285616 16.1260344 251.80774623 16.12908131 C250.30338418 16.12471205 250.30338418 16.12471205 248.76863098 16.12025452 C247.70434409 16.12110894 246.6400572 16.12196337 245.5435192 16.12284368 C241.95974138 16.12449725 238.37600987 16.11897909 234.79223633 16.11352539 C232.23025005 16.11324347 229.66826369 16.11340135 227.10627747 16.1139679 C221.5814689 16.11419598 216.05667537 16.11135053 210.53186989 16.10573006 C202.54389384 16.09760905 194.5559235 16.09499922 186.56794377 16.09374207 C173.60852504 16.09155249 160.64911259 16.08489497 147.68969727 16.07543945 C135.09952832 16.06626289 122.50936107 16.05918325 109.91918945 16.05493164 C109.14335877 16.05466892 108.36752809 16.05440619 107.56818739 16.05413551 C103.67614078 16.05283049 99.78409416 16.05156678 95.89204752 16.05032361 C63.59469378 16.03995394 31.29734776 16.0223382 -1 16 C-1 15.67 -1 15.34 -1 15 C84.47 15 169.94 15 258 15 C258 10.38 258 5.76 258 1 C172.86 1 87.72 1 0 1 C0 0.67 0 0.34 0 0 Z " fill="#31CDFA" transform="translate(212,447)"/>
<path d="M0 0 C2.375 1.5625 2.375 1.5625 4 4 C4.5390625 7.2265625 4.5390625 7.2265625 4 11 C2.00764852 13.66872032 -0.45116084 15.68676574 -3 17.8125 C-4.38965692 19.04209938 -5.7751039 20.2764735 -7.15625 21.515625 C-7.82398438 22.11181641 -8.49171875 22.70800781 -9.1796875 23.32226562 C-16.76881699 30.31696759 -21.43272127 38.89398803 -26 48 C-27 46 -27 46 -26.5625 43.9375 C-25.38837752 37.80597148 -25.83160264 32.55009864 -27.5 26.5625 C-28.16411912 23.13679201 -28.27192023 21.56151947 -26.73828125 18.39453125 C-20.94507981 10.81519062 -10.22254064 -1.25173967 0 0 Z " fill="#07A9F1" transform="translate(219,83)"/>
<path d="M0 0 C2.45703125 1.43359375 2.45703125 1.43359375 4.8125 3.4375 C5.66457031 4.16195312 6.51664062 4.88640625 7.39453125 5.6328125 C17.60836502 14.91254753 17.60836502 14.91254753 21 20 C21.01171875 21.98828125 21.01171875 21.98828125 20.6875 24.3125 C20.13562545 28.7472062 19.74470473 33.16601376 19.4375 37.625 C19.35371094 38.83414063 19.26992188 40.04328125 19.18359375 41.2890625 C19.09271484 42.63097656 19.09271484 42.63097656 19 44 C16.38794457 41.62893778 14.78125737 39.09509067 13 36.0625 C7.73398862 27.65692159 1.06125017 20.38991486 -6.625 14.125 C-9.17158578 11.96171476 -9.9754 11.05857142 -11.3125 7.875 C-11 5 -11 5 -8.9375 2.125 C-5.46400003 -0.38774466 -4.18949737 -0.46724971 0 0 Z " fill="#0290D0" transform="translate(470,83)"/>
<path d="M0 0 C0.70313324 -0.00058411 1.40626648 -0.00116821 2.13070679 -0.00177002 C4.4361244 0.0009988 6.74022072 0.03203066 9.04541016 0.06347656 C10.65108535 0.07094331 12.25676969 0.07663419 13.86245728 0.08062744 C18.07453881 0.09584984 22.28606259 0.13510166 26.4979248 0.17944336 C30.80143694 0.22046981 35.10503979 0.23865414 39.40869141 0.25878906 C47.8425402 0.30159986 56.27593691 0.36980921 64.70947266 0.45410156 C58.75867646 6.73246878 53.17795548 8.65193328 44.53735352 8.90820312 C41.74879593 8.92279965 38.96252065 8.88611815 36.17431641 8.84472656 C34.68503077 8.83725232 33.1957352 8.83156499 31.70643616 8.82757568 C27.81495291 8.81241208 23.92408107 8.77321282 20.03283691 8.72875977 C16.05078397 8.68760475 12.06863078 8.6695218 8.08642578 8.64941406 C0.29383143 8.60670741 -7.4982618 8.5385716 -15.29052734 8.45410156 C-12.78486271 1.4382406 -6.81464663 -0.04782208 0 0 Z " fill="#F9E6C5" transform="translate(74.29052734375,454.5458984375)"/>
<path d="M0 0 C0.33 0 0.66 0 1 0 C1.06058594 0.89460938 1.12117188 1.78921875 1.18359375 2.7109375 C1.30927734 4.52464844 1.30927734 4.52464844 1.4375 6.375 C1.51613281 7.65632813 1.59476562 8.93765625 1.67578125 10.2578125 C1.90917393 13.86449372 1.90917393 13.86449372 2.60546875 16.8046875 C3.45663011 20.81090562 3.64714905 22.97441981 1.41015625 26.51953125 C-0.92909811 29.19590135 -3.37894243 31.59926321 -6 34 C-6.91007812 34.8559375 -7.82015625 35.711875 -8.7578125 36.59375 C-16.96292594 44.15297987 -16.96292594 44.15297987 -24 44 C-24.53394179 42.5882217 -25.05165104 41.17029756 -25.5625 39.75 C-25.85253906 38.96109375 -26.14257812 38.1721875 -26.44140625 37.359375 C-27.07063351 34.70165986 -26.89666443 33.54930392 -26 31 C-23.87668797 28.92627081 -21.74669757 26.99197235 -19.5 25.0625 C-11.85893503 18.26005287 -6.47760461 10.96624008 -1.32421875 2.125 C-0.66873047 1.073125 -0.66873047 1.073125 0 0 Z " fill="#0290D0" transform="translate(487,382)"/>
<path d="M0 0 C3.0004893 2.84152298 5.34722596 5.78747922 7.6875 9.1875 C12.65672371 16.11485648 18.29284946 21.95222267 25.0625 27.125 C27.81431121 29.42884195 27.96753494 29.82882058 28.6875 33.625 C28 37 28 37 26.375 39.4375 C23.15577836 41.55540897 21.80569211 41.73186387 18 41 C15.10761906 39.25878668 12.57635099 37.1736348 10 35 C9.44957031 34.57074219 8.89914063 34.14148438 8.33203125 33.69921875 C6.84145972 32.5228551 5.41921889 31.2615279 4 30 C3.05125 29.175 2.1025 28.35 1.125 27.5 C-3.96454059 21.15438689 -0.99142151 9.47203439 -0.21875 1.94921875 C-0.1465625 1.30597656 -0.074375 0.66273438 0 0 Z " fill="#07A9F0" transform="translate(196,385)"/>
<path d="M0 0 C0.89396484 0.04060547 1.78792969 0.08121094 2.70898438 0.12304688 C3.60681641 0.12111328 4.50464844 0.11917969 5.4296875 0.1171875 C9.45580536 0.20399599 11.89304192 0.27984156 15.23632812 2.63476562 C17.3232437 5.85474339 17.1819325 8.06240998 16.64648438 11.81054688 C15.17285156 14.00488281 15.17285156 14.00488281 12.64648438 15.81054688 C9.66677151 16.35862726 6.74540921 16.27609069 3.72460938 16.20117188 C2.86462341 16.19551208 2.00463745 16.18985229 1.11859131 16.184021 C-1.62268212 16.16166638 -4.36263866 16.1114729 -7.10351562 16.06054688 C-8.9641738 16.04048064 -10.82485251 16.02223008 -12.68554688 16.00585938 C-17.24204229 15.96180472 -21.79755584 15.89278442 -26.35351562 15.81054688 C-25.74306396 15.50656982 -25.1326123 15.20259277 -24.50366211 14.8894043 C-22.10683573 13.68677278 -19.75358578 12.43770497 -17.41601562 11.12304688 C-16.16498047 10.43662109 -16.16498047 10.43662109 -14.88867188 9.73632812 C-12.41071373 7.85399628 -11.6721995 6.74945871 -10.16601562 4.14648438 C-7.41062852 0.07135796 -4.72643763 -0.02456204 0 0 Z " fill="#02CFFA" transform="translate(474.353515625,475.189453125)"/>
<path d="M0 0 C2.75105422 -0.10812003 5.49785087 -0.18734945 8.25 -0.25 C9.02730469 -0.28351562 9.80460937 -0.31703125 10.60546875 -0.3515625 C16.36986123 -0.45009912 16.36986123 -0.45009912 19.515625 1.796875 C21.68942352 5.02324965 21.54267635 7.20126556 21 11 C19.609375 13.203125 19.609375 13.203125 17 15 C13.57088235 15.49247966 10.20508682 15.37581549 6.75 15.25 C5.81414062 15.23195313 4.87828125 15.21390625 3.9140625 15.1953125 C1.60832985 15.14825673 -0.69530945 15.08253713 -3 15 C-2.44854729 9.76119922 -1.57077907 5.02649303 0 0 Z " fill="#02CFFA" transform="translate(470,21)"/>
<path d="M0 0 C8.86133603 -0.7742915 8.86133603 -0.7742915 13.125 2.125 C15.3337936 5.51181686 15.75856436 7.03860834 15 11 C13.48046875 13.16796875 13.48046875 13.16796875 11 15 C8.10550051 15.2906124 5.62050065 15.38186045 2.75 15.25 C1.63238281 15.22292969 1.63238281 15.22292969 0.4921875 15.1953125 C-1.33909701 15.14835649 -3.16971649 15.07661652 -5 15 C-3.97137215 9.55432314 -2.75385216 4.88182883 0 0 Z " fill="#04CFFA" transform="translate(462,49)"/>
<path d="M0 0 C2.475 0.495 2.475 0.495 5 1 C7.32579101 4.48868651 7.41865457 5.89718519 7 10 C5.6875 12.375 5.6875 12.375 4 14 C3.01 14 2.02 14 1 14 C0.67 9.38 0.34 4.76 0 0 Z " fill="#05CEFA" transform="translate(470,448)"/>
</svg>
